<?xml version="1.0" encoding="utf-8" standalone="no"?>
<!DOCTYPE svg PUBLIC "-//W3C//DTD SVG 1.1//EN"
  "http://www.w3.org/Graphics/SVG/1.1/DTD/svg11.dtd">
<!-- Created with matplotlib (https://matplotlib.org/) -->
<svg height="288pt" version="1.1" viewBox="0 0 288 288" width="288pt" xmlns="http://www.w3.org/2000/svg" xmlns:xlink="http://www.w3.org/1999/xlink">
 <metadata>
  <rdf:RDF xmlns:cc="http://creativecommons.org/ns#" xmlns:dc="http://purl.org/dc/elements/1.1/" xmlns:rdf="http://www.w3.org/1999/02/22-rdf-syntax-ns#">
   <cc:Work>
    <dc:type rdf:resource="http://purl.org/dc/dcmitype/StillImage"/>
    <dc:date>2022-03-31T12:11:51.376922</dc:date>
    <dc:format>image/svg+xml</dc:format>
    <dc:creator>
     <cc:Agent>
      <dc:title>Matplotlib v3.3.4, https://matplotlib.org/</dc:title>
     </cc:Agent>
    </dc:creator>
   </cc:Work>
  </rdf:RDF>
 </metadata>
 <defs>
  <style type="text/css">*{stroke-linecap:butt;stroke-linejoin:round;}</style>
 </defs>
 <g id="figure_1">
  <g id="patch_1">
   <path d="M 0 288 
L 288 288 
L 288 0 
L 0 0 
z
" style="fill:#ffffff;"/>
  </g>
  <g id="axes_1">
   <g id="patch_2">
    <path d="M 62.57 187.23 
L 275.689954 187.23 
L 275.689954 10.8 
L 62.57 10.8 
z
" style="fill:#ffffff;"/>
   </g>
   <g id="PathCollection_1">
    <defs>
     <path d="M 0 2.236068 
C 0.593012 2.236068 1.161816 2.000462 1.581139 1.581139 
C 2.000462 1.161816 2.236068 0.593012 2.236068 -0 
C 2.236068 -0.593012 2.000462 -1.161816 1.581139 -1.581139 
C 1.161816 -2.000462 0.593012 -2.236068 0 -2.236068 
C -0.593012 -2.236068 -1.161816 -2.000462 -1.581139 -1.581139 
C -2.000462 -1.161816 -2.236068 -0.593012 -2.236068 0 
C -2.236068 0.593012 -2.000462 1.161816 -1.581139 1.581139 
C -1.161816 2.000462 -0.593012 2.236068 0 2.236068 
z
" id="C0_0_c2f727a31b"/>
    </defs>
    <g clip-path="url(#pe436cf65af)">
     <use style="fill:none;stroke:#000000;" x="72.257271" xlink:href="#C0_0_c2f727a31b" y="66.171178"/>
    </g>
    <g clip-path="url(#pe436cf65af)">
     <use style="fill:none;stroke:#000000;" x="74.234265" xlink:href="#C0_0_c2f727a31b" y="81.863929"/>
    </g>
    <g clip-path="url(#pe436cf65af)">
     <use style="fill:none;stroke:#000000;" x="76.211259" xlink:href="#C0_0_c2f727a31b" y="89.577671"/>
    </g>
    <g clip-path="url(#pe436cf65af)">
     <use style="fill:none;stroke:#000000;" x="78.188253" xlink:href="#C0_0_c2f727a31b" y="95.136923"/>
    </g>
    <g clip-path="url(#pe436cf65af)">
     <use style="fill:none;stroke:#000000;" x="80.165247" xlink:href="#C0_0_c2f727a31b" y="95.847326"/>
    </g>
    <g clip-path="url(#pe436cf65af)">
     <use style="fill:none;stroke:#000000;" x="82.142241" xlink:href="#C0_0_c2f727a31b" y="93.048285"/>
    </g>
    <g clip-path="url(#pe436cf65af)">
     <use style="fill:none;stroke:#000000;" x="84.119235" xlink:href="#C0_0_c2f727a31b" y="104.861739"/>
    </g>
    <g clip-path="url(#pe436cf65af)">
     <use style="fill:none;stroke:#000000;" x="86.096229" xlink:href="#C0_0_c2f727a31b" y="104.220255"/>
    </g>
    <g clip-path="url(#pe436cf65af)">
     <use style="fill:none;stroke:#000000;" x="88.073223" xlink:href="#C0_0_c2f727a31b" y="110.286584"/>
    </g>
    <g clip-path="url(#pe436cf65af)">
     <use style="fill:none;stroke:#000000;" x="90.050217" xlink:href="#C0_0_c2f727a31b" y="93.72636"/>
    </g>
    <g clip-path="url(#pe436cf65af)">
     <use style="fill:none;stroke:#000000;" x="92.027211" xlink:href="#C0_0_c2f727a31b" y="105.712077"/>
    </g>
    <g clip-path="url(#pe436cf65af)">
     <use style="fill:none;stroke:#000000;" x="94.004205" xlink:href="#C0_0_c2f727a31b" y="103.14663"/>
    </g>
    <g clip-path="url(#pe436cf65af)">
     <use style="fill:none;stroke:#000000;" x="95.981199" xlink:href="#C0_0_c2f727a31b" y="115.653706"/>
    </g>
    <g clip-path="url(#pe436cf65af)">
     <use style="fill:none;stroke:#000000;" x="97.958193" xlink:href="#C0_0_c2f727a31b" y="110.932922"/>
    </g>
    <g clip-path="url(#pe436cf65af)">
     <use style="fill:none;stroke:#000000;" x="99.935187" xlink:href="#C0_0_c2f727a31b" y="113.892102"/>
    </g>
    <g clip-path="url(#pe436cf65af)">
     <use style="fill:none;stroke:#000000;" x="101.912181" xlink:href="#C0_0_c2f727a31b" y="116.658337"/>
    </g>
    <g clip-path="url(#pe436cf65af)">
     <use style="fill:none;stroke:#000000;" x="103.889175" xlink:href="#C0_0_c2f727a31b" y="103.873745"/>
    </g>
    <g clip-path="url(#pe436cf65af)">
     <use style="fill:none;stroke:#000000;" x="105.866169" xlink:href="#C0_0_c2f727a31b" y="103.696534"/>
    </g>
    <g clip-path="url(#pe436cf65af)">
     <use style="fill:none;stroke:#000000;" x="107.843163" xlink:href="#C0_0_c2f727a31b" y="110.915848"/>
    </g>
    <g clip-path="url(#pe436cf65af)">
     <use style="fill:none;stroke:#000000;" x="109.820157" xlink:href="#C0_0_c2f727a31b" y="99.248978"/>
    </g>
    <g clip-path="url(#pe436cf65af)">
     <use style="fill:none;stroke:#000000;" x="111.797151" xlink:href="#C0_0_c2f727a31b" y="111.59949"/>
    </g>
    <g clip-path="url(#pe436cf65af)">
     <use style="fill:none;stroke:#000000;" x="113.774145" xlink:href="#C0_0_c2f727a31b" y="113.71391"/>
    </g>
    <g clip-path="url(#pe436cf65af)">
     <use style="fill:none;stroke:#000000;" x="115.751139" xlink:href="#C0_0_c2f727a31b" y="113.025163"/>
    </g>
    <g clip-path="url(#pe436cf65af)">
     <use style="fill:none;stroke:#000000;" x="117.728133" xlink:href="#C0_0_c2f727a31b" y="113.10299"/>
    </g>
    <g clip-path="url(#pe436cf65af)">
     <use style="fill:none;stroke:#000000;" x="119.705127" xlink:href="#C0_0_c2f727a31b" y="91.852879"/>
    </g>
    <g clip-path="url(#pe436cf65af)">
     <use style="fill:none;stroke:#000000;" x="121.682121" xlink:href="#C0_0_c2f727a31b" y="124.513748"/>
    </g>
    <g clip-path="url(#pe436cf65af)">
     <use style="fill:none;stroke:#000000;" x="123.659115" xlink:href="#C0_0_c2f727a31b" y="115.482937"/>
    </g>
    <g clip-path="url(#pe436cf65af)">
     <use style="fill:none;stroke:#000000;" x="125.636109" xlink:href="#C0_0_c2f727a31b" y="119.891804"/>
    </g>
    <g clip-path="url(#pe436cf65af)">
     <use style="fill:none;stroke:#000000;" x="127.613103" xlink:href="#C0_0_c2f727a31b" y="120.839572"/>
    </g>
    <g clip-path="url(#pe436cf65af)">
     <use style="fill:none;stroke:#000000;" x="129.590097" xlink:href="#C0_0_c2f727a31b" y="118.990789"/>
    </g>
    <g clip-path="url(#pe436cf65af)">
     <use style="fill:none;stroke:#000000;" x="131.567091" xlink:href="#C0_0_c2f727a31b" y="110.486192"/>
    </g>
    <g clip-path="url(#pe436cf65af)">
     <use style="fill:none;stroke:#000000;" x="133.544085" xlink:href="#C0_0_c2f727a31b" y="129.647796"/>
    </g>
    <g clip-path="url(#pe436cf65af)">
     <use style="fill:none;stroke:#000000;" x="135.521079" xlink:href="#C0_0_c2f727a31b" y="114.157387"/>
    </g>
    <g clip-path="url(#pe436cf65af)">
     <use style="fill:none;stroke:#000000;" x="137.498073" xlink:href="#C0_0_c2f727a31b" y="116.393497"/>
    </g>
    <g clip-path="url(#pe436cf65af)">
     <use style="fill:none;stroke:#000000;" x="139.475067" xlink:href="#C0_0_c2f727a31b" y="110.909777"/>
    </g>
    <g clip-path="url(#pe436cf65af)">
     <use style="fill:none;stroke:#000000;" x="141.452061" xlink:href="#C0_0_c2f727a31b" y="122.928663"/>
    </g>
    <g clip-path="url(#pe436cf65af)">
     <use style="fill:none;stroke:#000000;" x="143.429055" xlink:href="#C0_0_c2f727a31b" y="109.849386"/>
    </g>
    <g clip-path="url(#pe436cf65af)">
     <use style="fill:none;stroke:#000000;" x="145.406049" xlink:href="#C0_0_c2f727a31b" y="111.946788"/>
    </g>
    <g clip-path="url(#pe436cf65af)">
     <use style="fill:none;stroke:#000000;" x="147.383043" xlink:href="#C0_0_c2f727a31b" y="130.765627"/>
    </g>
    <g clip-path="url(#pe436cf65af)">
     <use style="fill:none;stroke:#000000;" x="149.360037" xlink:href="#C0_0_c2f727a31b" y="121.224995"/>
    </g>
    <g clip-path="url(#pe436cf65af)">
     <use style="fill:none;stroke:#000000;" x="151.337031" xlink:href="#C0_0_c2f727a31b" y="116.306479"/>
    </g>
    <g clip-path="url(#pe436cf65af)">
     <use style="fill:none;stroke:#000000;" x="153.314025" xlink:href="#C0_0_c2f727a31b" y="120.093421"/>
    </g>
    <g clip-path="url(#pe436cf65af)">
     <use style="fill:none;stroke:#000000;" x="155.291019" xlink:href="#C0_0_c2f727a31b" y="119.054238"/>
    </g>
    <g clip-path="url(#pe436cf65af)">
     <use style="fill:none;stroke:#000000;" x="157.268013" xlink:href="#C0_0_c2f727a31b" y="111.57645"/>
    </g>
    <g clip-path="url(#pe436cf65af)">
     <use style="fill:none;stroke:#000000;" x="159.245007" xlink:href="#C0_0_c2f727a31b" y="111.272563"/>
    </g>
    <g clip-path="url(#pe436cf65af)">
     <use style="fill:none;stroke:#000000;" x="161.222001" xlink:href="#C0_0_c2f727a31b" y="128.342049"/>
    </g>
    <g clip-path="url(#pe436cf65af)">
     <use style="fill:none;stroke:#000000;" x="163.198995" xlink:href="#C0_0_c2f727a31b" y="116.665734"/>
    </g>
    <g clip-path="url(#pe436cf65af)">
     <use style="fill:none;stroke:#000000;" x="165.175989" xlink:href="#C0_0_c2f727a31b" y="116.250901"/>
    </g>
    <g clip-path="url(#pe436cf65af)">
     <use style="fill:none;stroke:#000000;" x="167.152983" xlink:href="#C0_0_c2f727a31b" y="128.050183"/>
    </g>
    <g clip-path="url(#pe436cf65af)">
     <use style="fill:none;stroke:#000000;" x="169.129977" xlink:href="#C0_0_c2f727a31b" y="112.208643"/>
    </g>
    <g clip-path="url(#pe436cf65af)">
     <use style="fill:none;stroke:#000000;" x="171.106971" xlink:href="#C0_0_c2f727a31b" y="114.749863"/>
    </g>
    <g clip-path="url(#pe436cf65af)">
     <use style="fill:none;stroke:#000000;" x="173.083965" xlink:href="#C0_0_c2f727a31b" y="105.145362"/>
    </g>
    <g clip-path="url(#pe436cf65af)">
     <use style="fill:none;stroke:#000000;" x="175.060959" xlink:href="#C0_0_c2f727a31b" y="110.746223"/>
    </g>
    <g clip-path="url(#pe436cf65af)">
     <use style="fill:none;stroke:#000000;" x="177.037953" xlink:href="#C0_0_c2f727a31b" y="116.71964"/>
    </g>
    <g clip-path="url(#pe436cf65af)">
     <use style="fill:none;stroke:#000000;" x="179.014947" xlink:href="#C0_0_c2f727a31b" y="123.572932"/>
    </g>
    <g clip-path="url(#pe436cf65af)">
     <use style="fill:none;stroke:#000000;" x="180.991941" xlink:href="#C0_0_c2f727a31b" y="130.218919"/>
    </g>
    <g clip-path="url(#pe436cf65af)">
     <use style="fill:none;stroke:#000000;" x="182.968935" xlink:href="#C0_0_c2f727a31b" y="109.224223"/>
    </g>
    <g clip-path="url(#pe436cf65af)">
     <use style="fill:none;stroke:#000000;" x="184.945929" xlink:href="#C0_0_c2f727a31b" y="117.493387"/>
    </g>
    <g clip-path="url(#pe436cf65af)">
     <use style="fill:none;stroke:#000000;" x="186.922923" xlink:href="#C0_0_c2f727a31b" y="115.235997"/>
    </g>
    <g clip-path="url(#pe436cf65af)">
     <use style="fill:none;stroke:#000000;" x="188.899917" xlink:href="#C0_0_c2f727a31b" y="118.617148"/>
    </g>
    <g clip-path="url(#pe436cf65af)">
     <use style="fill:none;stroke:#000000;" x="190.876911" xlink:href="#C0_0_c2f727a31b" y="112.946305"/>
    </g>
    <g clip-path="url(#pe436cf65af)">
     <use style="fill:none;stroke:#000000;" x="192.853905" xlink:href="#C0_0_c2f727a31b" y="111.095057"/>
    </g>
    <g clip-path="url(#pe436cf65af)">
     <use style="fill:none;stroke:#000000;" x="194.830899" xlink:href="#C0_0_c2f727a31b" y="110.904503"/>
    </g>
    <g clip-path="url(#pe436cf65af)">
     <use style="fill:none;stroke:#000000;" x="196.807893" xlink:href="#C0_0_c2f727a31b" y="111.782022"/>
    </g>
    <g clip-path="url(#pe436cf65af)">
     <use style="fill:none;stroke:#000000;" x="198.784887" xlink:href="#C0_0_c2f727a31b" y="115.417325"/>
    </g>
    <g clip-path="url(#pe436cf65af)">
     <use style="fill:none;stroke:#000000;" x="200.761881" xlink:href="#C0_0_c2f727a31b" y="127.432572"/>
    </g>
    <g clip-path="url(#pe436cf65af)">
     <use style="fill:none;stroke:#000000;" x="202.738875" xlink:href="#C0_0_c2f727a31b" y="111.496722"/>
    </g>
    <g clip-path="url(#pe436cf65af)">
     <use style="fill:none;stroke:#000000;" x="204.715869" xlink:href="#C0_0_c2f727a31b" y="114.84711"/>
    </g>
    <g clip-path="url(#pe436cf65af)">
     <use style="fill:none;stroke:#000000;" x="206.692863" xlink:href="#C0_0_c2f727a31b" y="112.792173"/>
    </g>
    <g clip-path="url(#pe436cf65af)">
     <use style="fill:none;stroke:#000000;" x="208.669857" xlink:href="#C0_0_c2f727a31b" y="113.058346"/>
    </g>
    <g clip-path="url(#pe436cf65af)">
     <use style="fill:none;stroke:#000000;" x="210.646851" xlink:href="#C0_0_c2f727a31b" y="120.56004"/>
    </g>
    <g clip-path="url(#pe436cf65af)">
     <use style="fill:none;stroke:#000000;" x="212.623845" xlink:href="#C0_0_c2f727a31b" y="105.676446"/>
    </g>
    <g clip-path="url(#pe436cf65af)">
     <use style="fill:none;stroke:#000000;" x="214.600839" xlink:href="#C0_0_c2f727a31b" y="114.80215"/>
    </g>
    <g clip-path="url(#pe436cf65af)">
     <use style="fill:none;stroke:#000000;" x="216.577833" xlink:href="#C0_0_c2f727a31b" y="116.386748"/>
    </g>
    <g clip-path="url(#pe436cf65af)">
     <use style="fill:none;stroke:#000000;" x="218.554827" xlink:href="#C0_0_c2f727a31b" y="114.216068"/>
    </g>
    <g clip-path="url(#pe436cf65af)">
     <use style="fill:none;stroke:#000000;" x="220.531821" xlink:href="#C0_0_c2f727a31b" y="130.435459"/>
    </g>
    <g clip-path="url(#pe436cf65af)">
     <use style="fill:none;stroke:#000000;" x="222.508815" xlink:href="#C0_0_c2f727a31b" y="117.766654"/>
    </g>
    <g clip-path="url(#pe436cf65af)">
     <use style="fill:none;stroke:#000000;" x="224.485809" xlink:href="#C0_0_c2f727a31b" y="121.754675"/>
    </g>
    <g clip-path="url(#pe436cf65af)">
     <use style="fill:none;stroke:#000000;" x="226.462803" xlink:href="#C0_0_c2f727a31b" y="139.157449"/>
    </g>
    <g clip-path="url(#pe436cf65af)">
     <use style="fill:none;stroke:#000000;" x="228.439797" xlink:href="#C0_0_c2f727a31b" y="128.36956"/>
    </g>
    <g clip-path="url(#pe436cf65af)">
     <use style="fill:none;stroke:#000000;" x="230.416791" xlink:href="#C0_0_c2f727a31b" y="121.574988"/>
    </g>
    <g clip-path="url(#pe436cf65af)">
     <use style="fill:none;stroke:#000000;" x="232.393785" xlink:href="#C0_0_c2f727a31b" y="111.220768"/>
    </g>
    <g clip-path="url(#pe436cf65af)">
     <use style="fill:none;stroke:#000000;" x="234.370779" xlink:href="#C0_0_c2f727a31b" y="121.223608"/>
    </g>
    <g clip-path="url(#pe436cf65af)">
     <use style="fill:none;stroke:#000000;" x="236.347773" xlink:href="#C0_0_c2f727a31b" y="116.161278"/>
    </g>
    <g clip-path="url(#pe436cf65af)">
     <use style="fill:none;stroke:#000000;" x="238.324767" xlink:href="#C0_0_c2f727a31b" y="129.495774"/>
    </g>
    <g clip-path="url(#pe436cf65af)">
     <use style="fill:none;stroke:#000000;" x="240.301761" xlink:href="#C0_0_c2f727a31b" y="126.316047"/>
    </g>
    <g clip-path="url(#pe436cf65af)">
     <use style="fill:none;stroke:#000000;" x="242.278755" xlink:href="#C0_0_c2f727a31b" y="134.072376"/>
    </g>
    <g clip-path="url(#pe436cf65af)">
     <use style="fill:none;stroke:#000000;" x="244.255749" xlink:href="#C0_0_c2f727a31b" y="123.770119"/>
    </g>
    <g clip-path="url(#pe436cf65af)">
     <use style="fill:none;stroke:#000000;" x="246.232743" xlink:href="#C0_0_c2f727a31b" y="125.259352"/>
    </g>
    <g clip-path="url(#pe436cf65af)">
     <use style="fill:none;stroke:#000000;" x="248.209737" xlink:href="#C0_0_c2f727a31b" y="118.072668"/>
    </g>
    <g clip-path="url(#pe436cf65af)">
     <use style="fill:none;stroke:#000000;" x="250.186731" xlink:href="#C0_0_c2f727a31b" y="115.414848"/>
    </g>
    <g clip-path="url(#pe436cf65af)">
     <use style="fill:none;stroke:#000000;" x="252.163725" xlink:href="#C0_0_c2f727a31b" y="125.747952"/>
    </g>
    <g clip-path="url(#pe436cf65af)">
     <use style="fill:none;stroke:#000000;" x="254.140719" xlink:href="#C0_0_c2f727a31b" y="114.188141"/>
    </g>
    <g clip-path="url(#pe436cf65af)">
     <use style="fill:none;stroke:#000000;" x="256.117713" xlink:href="#C0_0_c2f727a31b" y="126.045858"/>
    </g>
    <g clip-path="url(#pe436cf65af)">
     <use style="fill:none;stroke:#000000;" x="258.094707" xlink:href="#C0_0_c2f727a31b" y="120.375667"/>
    </g>
    <g clip-path="url(#pe436cf65af)">
     <use style="fill:none;stroke:#000000;" x="260.071701" xlink:href="#C0_0_c2f727a31b" y="105.512201"/>
    </g>
    <g clip-path="url(#pe436cf65af)">
     <use style="fill:none;stroke:#000000;" x="262.048695" xlink:href="#C0_0_c2f727a31b" y="118.743979"/>
    </g>
    <g clip-path="url(#pe436cf65af)">
     <use style="fill:none;stroke:#000000;" x="264.025689" xlink:href="#C0_0_c2f727a31b" y="117.590188"/>
    </g>
    <g clip-path="url(#pe436cf65af)">
     <use style="fill:none;stroke:#000000;" x="266.002683" xlink:href="#C0_0_c2f727a31b" y="128.063504"/>
    </g>
   </g>
   <g id="matplotlib.axis_1">
    <g id="xtick_1">
     <g id="line2d_1">
      <defs>
       <path d="M 0 0 
L 0 3.5 
" id="m958b9b1f79" style="stroke:#000000;stroke-width:0.8;"/>
      </defs>
      <g>
       <use style="stroke:#000000;stroke-width:0.8;" x="70.280277" xlink:href="#m958b9b1f79" y="187.23"/>
      </g>
     </g>
    </g>
    <g id="xtick_2">
     <g id="line2d_2">
      <g>
       <use style="stroke:#000000;stroke-width:0.8;" x="136.180077" xlink:href="#m958b9b1f79" y="187.23"/>
      </g>
     </g>
    </g>
    <g id="xtick_3">
     <g id="line2d_3">
      <g>
       <use style="stroke:#000000;stroke-width:0.8;" x="202.079877" xlink:href="#m958b9b1f79" y="187.23"/>
      </g>
     </g>
    </g>
    <g id="xtick_4">
     <g id="line2d_4">
      <g>
       <use style="stroke:#000000;stroke-width:0.8;" x="267.979677" xlink:href="#m958b9b1f79" y="187.23"/>
      </g>
     </g>
    </g>
   </g>
   <g id="matplotlib.axis_2">
    <g id="ytick_1">
     <g id="line2d_5">
      <defs>
       <path d="M 0 0 
L -3.5 0 
" id="mac007da62a" style="stroke:#000000;stroke-width:0.8;"/>
      </defs>
      <g>
       <use style="stroke:#000000;stroke-width:0.8;" x="62.57" xlink:href="#mac007da62a" y="173.154321"/>
      </g>
     </g>
     <g id="text_1">
      <!-- 0.24 -->
      <g transform="translate(33.304375 176.95354)scale(0.1 -0.1)">
       <defs>
        <path d="M 31.78125 66.40625 
Q 24.171875 66.40625 20.328125 58.90625 
Q 16.5 51.421875 16.5 36.375 
Q 16.5 21.390625 20.328125 13.890625 
Q 24.171875 6.390625 31.78125 6.390625 
Q 39.453125 6.390625 43.28125 13.890625 
Q 47.125 21.390625 47.125 36.375 
Q 47.125 51.421875 43.28125 58.90625 
Q 39.453125 66.40625 31.78125 66.40625 
z
M 31.78125 74.21875 
Q 44.046875 74.21875 50.515625 64.515625 
Q 56.984375 54.828125 56.984375 36.375 
Q 56.984375 17.96875 50.515625 8.265625 
Q 44.046875 -1.421875 31.78125 -1.421875 
Q 19.53125 -1.421875 13.0625 8.265625 
Q 6.59375 17.96875 6.59375 36.375 
Q 6.59375 54.828125 13.0625 64.515625 
Q 19.53125 74.21875 31.78125 74.21875 
z
" id="DejaVuSans-48"/>
        <path d="M 10.6875 12.40625 
L 21 12.40625 
L 21 0 
L 10.6875 0 
z
" id="DejaVuSans-46"/>
        <path d="M 19.1875 8.296875 
L 53.609375 8.296875 
L 53.609375 0 
L 7.328125 0 
L 7.328125 8.296875 
Q 12.9375 14.109375 22.625 23.890625 
Q 32.328125 33.6875 34.8125 36.53125 
Q 39.546875 41.84375 41.421875 45.53125 
Q 43.3125 49.21875 43.3125 52.78125 
Q 43.3125 58.59375 39.234375 62.25 
Q 35.15625 65.921875 28.609375 65.921875 
Q 23.96875 65.921875 18.8125 64.3125 
Q 13.671875 62.703125 7.8125 59.421875 
L 7.8125 69.390625 
Q 13.765625 71.78125 18.9375 73 
Q 24.125 74.21875 28.421875 74.21875 
Q 39.75 74.21875 46.484375 68.546875 
Q 53.21875 62.890625 53.21875 53.421875 
Q 53.21875 48.921875 51.53125 44.890625 
Q 49.859375 40.875 45.40625 35.40625 
Q 44.1875 33.984375 37.640625 27.21875 
Q 31.109375 20.453125 19.1875 8.296875 
z
" id="DejaVuSans-50"/>
        <path d="M 37.796875 64.3125 
L 12.890625 25.390625 
L 37.796875 25.390625 
z
M 35.203125 72.90625 
L 47.609375 72.90625 
L 47.609375 25.390625 
L 58.015625 25.390625 
L 58.015625 17.1875 
L 47.609375 17.1875 
L 47.609375 0 
L 37.796875 0 
L 37.796875 17.1875 
L 4.890625 17.1875 
L 4.890625 26.703125 
z
" id="DejaVuSans-52"/>
       </defs>
       <use xlink:href="#DejaVuSans-48"/>
       <use x="63.623047" xlink:href="#DejaVuSans-46"/>
       <use x="95.410156" xlink:href="#DejaVuSans-50"/>
       <use x="159.033203" xlink:href="#DejaVuSans-52"/>
      </g>
     </g>
    </g>
    <g id="ytick_2">
     <g id="line2d_6">
      <g>
       <use style="stroke:#000000;stroke-width:0.8;" x="62.57" xlink:href="#mac007da62a" y="135.926935"/>
      </g>
     </g>
     <g id="text_2">
      <!-- 0.26 -->
      <g transform="translate(33.304375 139.726153)scale(0.1 -0.1)">
       <defs>
        <path d="M 33.015625 40.375 
Q 26.375 40.375 22.484375 35.828125 
Q 18.609375 31.296875 18.609375 23.390625 
Q 18.609375 15.53125 22.484375 10.953125 
Q 26.375 6.390625 33.015625 6.390625 
Q 39.65625 6.390625 43.53125 10.953125 
Q 47.40625 15.53125 47.40625 23.390625 
Q 47.40625 31.296875 43.53125 35.828125 
Q 39.65625 40.375 33.015625 40.375 
z
M 52.59375 71.296875 
L 52.59375 62.3125 
Q 48.875 64.0625 45.09375 64.984375 
Q 41.3125 65.921875 37.59375 65.921875 
Q 27.828125 65.921875 22.671875 59.328125 
Q 17.53125 52.734375 16.796875 39.40625 
Q 19.671875 43.65625 24.015625 45.921875 
Q 28.375 48.1875 33.59375 48.1875 
Q 44.578125 48.1875 50.953125 41.515625 
Q 57.328125 34.859375 57.328125 23.390625 
Q 57.328125 12.15625 50.6875 5.359375 
Q 44.046875 -1.421875 33.015625 -1.421875 
Q 20.359375 -1.421875 13.671875 8.265625 
Q 6.984375 17.96875 6.984375 36.375 
Q 6.984375 53.65625 15.1875 63.9375 
Q 23.390625 74.21875 37.203125 74.21875 
Q 40.921875 74.21875 44.703125 73.484375 
Q 48.484375 72.75 52.59375 71.296875 
z
" id="DejaVuSans-54"/>
       </defs>
       <use xlink:href="#DejaVuSans-48"/>
       <use x="63.623047" xlink:href="#DejaVuSans-46"/>
       <use x="95.410156" xlink:href="#DejaVuSans-50"/>
       <use x="159.033203" xlink:href="#DejaVuSans-54"/>
      </g>
     </g>
    </g>
    <g id="ytick_3">
     <g id="line2d_7">
      <g>
       <use style="stroke:#000000;stroke-width:0.8;" x="62.57" xlink:href="#mac007da62a" y="98.699548"/>
      </g>
     </g>
     <g id="text_3">
      <!-- 0.28 -->
      <g transform="translate(33.304375 102.498767)scale(0.1 -0.1)">
       <defs>
        <path d="M 31.78125 34.625 
Q 24.75 34.625 20.71875 30.859375 
Q 16.703125 27.09375 16.703125 20.515625 
Q 16.703125 13.921875 20.71875 10.15625 
Q 24.75 6.390625 31.78125 6.390625 
Q 38.8125 6.390625 42.859375 10.171875 
Q 46.921875 13.96875 46.921875 20.515625 
Q 46.921875 27.09375 42.890625 30.859375 
Q 38.875 34.625 31.78125 34.625 
z
M 21.921875 38.8125 
Q 15.578125 40.375 12.03125 44.71875 
Q 8.5 49.078125 8.5 55.328125 
Q 8.5 64.0625 14.71875 69.140625 
Q 20.953125 74.21875 31.78125 74.21875 
Q 42.671875 74.21875 48.875 69.140625 
Q 55.078125 64.0625 55.078125 55.328125 
Q 55.078125 49.078125 51.53125 44.71875 
Q 48 40.375 41.703125 38.8125 
Q 48.828125 37.15625 52.796875 32.3125 
Q 56.78125 27.484375 56.78125 20.515625 
Q 56.78125 9.90625 50.3125 4.234375 
Q 43.84375 -1.421875 31.78125 -1.421875 
Q 19.734375 -1.421875 13.25 4.234375 
Q 6.78125 9.90625 6.78125 20.515625 
Q 6.78125 27.484375 10.78125 32.3125 
Q 14.796875 37.15625 21.921875 38.8125 
z
M 18.3125 54.390625 
Q 18.3125 48.734375 21.84375 45.5625 
Q 25.390625 42.390625 31.78125 42.390625 
Q 38.140625 42.390625 41.71875 45.5625 
Q 45.3125 48.734375 45.3125 54.390625 
Q 45.3125 60.0625 41.71875 63.234375 
Q 38.140625 66.40625 31.78125 66.40625 
Q 25.390625 66.40625 21.84375 63.234375 
Q 18.3125 60.0625 18.3125 54.390625 
z
" id="DejaVuSans-56"/>
       </defs>
       <use xlink:href="#DejaVuSans-48"/>
       <use x="63.623047" xlink:href="#DejaVuSans-46"/>
       <use x="95.410156" xlink:href="#DejaVuSans-50"/>
       <use x="159.033203" xlink:href="#DejaVuSans-56"/>
      </g>
     </g>
    </g>
    <g id="ytick_4">
     <g id="line2d_8">
      <g>
       <use style="stroke:#000000;stroke-width:0.8;" x="62.57" xlink:href="#mac007da62a" y="61.472161"/>
      </g>
     </g>
     <g id="text_4">
      <!-- 0.30 -->
      <g transform="translate(33.304375 65.27138)scale(0.1 -0.1)">
       <defs>
        <path d="M 40.578125 39.3125 
Q 47.65625 37.796875 51.625 33 
Q 55.609375 28.21875 55.609375 21.1875 
Q 55.609375 10.40625 48.1875 4.484375 
Q 40.765625 -1.421875 27.09375 -1.421875 
Q 22.515625 -1.421875 17.65625 -0.515625 
Q 12.796875 0.390625 7.625 2.203125 
L 7.625 11.71875 
Q 11.71875 9.328125 16.59375 8.109375 
Q 21.484375 6.890625 26.8125 6.890625 
Q 36.078125 6.890625 40.9375 10.546875 
Q 45.796875 14.203125 45.796875 21.1875 
Q 45.796875 27.640625 41.28125 31.265625 
Q 36.765625 34.90625 28.71875 34.90625 
L 20.21875 34.90625 
L 20.21875 43.015625 
L 29.109375 43.015625 
Q 36.375 43.015625 40.234375 45.921875 
Q 44.09375 48.828125 44.09375 54.296875 
Q 44.09375 59.90625 40.109375 62.90625 
Q 36.140625 65.921875 28.71875 65.921875 
Q 24.65625 65.921875 20.015625 65.03125 
Q 15.375 64.15625 9.8125 62.3125 
L 9.8125 71.09375 
Q 15.4375 72.65625 20.34375 73.4375 
Q 25.25 74.21875 29.59375 74.21875 
Q 40.828125 74.21875 47.359375 69.109375 
Q 53.90625 64.015625 53.90625 55.328125 
Q 53.90625 49.265625 50.4375 45.09375 
Q 46.96875 40.921875 40.578125 39.3125 
z
" id="DejaVuSans-51"/>
       </defs>
       <use xlink:href="#DejaVuSans-48"/>
       <use x="63.623047" xlink:href="#DejaVuSans-46"/>
       <use x="95.410156" xlink:href="#DejaVuSans-51"/>
       <use x="159.033203" xlink:href="#DejaVuSans-48"/>
      </g>
     </g>
    </g>
    <g id="ytick_5">
     <g id="line2d_9">
      <g>
       <use style="stroke:#000000;stroke-width:0.8;" x="62.57" xlink:href="#mac007da62a" y="24.244775"/>
      </g>
     </g>
     <g id="text_5">
      <!-- 0.32 -->
      <g transform="translate(33.304375 28.043993)scale(0.1 -0.1)">
       <use xlink:href="#DejaVuSans-48"/>
       <use x="63.623047" xlink:href="#DejaVuSans-46"/>
       <use x="95.410156" xlink:href="#DejaVuSans-51"/>
       <use x="159.033203" xlink:href="#DejaVuSans-50"/>
      </g>
     </g>
    </g>
    <g id="text_6">
     <!-- $P$ -->
     <g transform="translate(27.224688 102.265)rotate(-90)scale(0.1 -0.1)">
      <defs>
       <path d="M 4.890625 0 
Q 3.90625 0 3.90625 1.3125 
Q 3.953125 1.5625 4.09375 2.171875 
Q 4.25 2.78125 4.515625 3.140625 
Q 4.78125 3.515625 5.171875 3.515625 
Q 11.28125 3.515625 13.71875 4.203125 
Q 14.984375 4.640625 15.578125 6.890625 
L 29.296875 61.8125 
Q 29.5 62.796875 29.5 63.1875 
Q 29.5 64.265625 28.328125 64.40625 
Q 26.421875 64.796875 21.09375 64.796875 
Q 20.125 64.796875 20.125 66.109375 
Q 20.171875 66.359375 20.3125 66.96875 
Q 20.453125 67.578125 20.71875 67.9375 
Q 21 68.3125 21.390625 68.3125 
L 55.90625 68.3125 
Q 60.640625 68.3125 65.078125 66.625 
Q 69.53125 64.9375 72.359375 61.46875 
Q 75.203125 58.015625 75.203125 53.078125 
Q 75.203125 46.734375 70.734375 41.75 
Q 66.265625 36.765625 59.59375 33.984375 
Q 52.9375 31.203125 46.6875 31.203125 
L 30.421875 31.203125 
L 24.3125 6.5 
Q 24.125 5.515625 24.125 5.078125 
Q 24.125 4.6875 24.234375 4.421875 
Q 24.359375 4.15625 24.578125 4.078125 
Q 24.8125 4 25.296875 3.90625 
Q 27.203125 3.515625 32.515625 3.515625 
Q 33.5 3.515625 33.5 2.203125 
Q 33.15625 0.78125 32.953125 0.390625 
Q 32.765625 0 31.78125 0 
z
M 30.90625 34.1875 
L 44.921875 34.1875 
Q 54.640625 34.1875 59.71875 39.40625 
Q 62.3125 42 63.9375 46.875 
Q 65.578125 51.765625 65.578125 55.71875 
Q 65.578125 60.640625 61.8125 62.71875 
Q 58.0625 64.796875 52.484375 64.796875 
L 42.921875 64.796875 
Q 40.1875 64.796875 39.296875 64.328125 
Q 38.421875 63.875 37.703125 61.375 
z
" id="Cmmi10-80"/>
      </defs>
      <use transform="translate(0 0.6875)" xlink:href="#Cmmi10-80"/>
     </g>
    </g>
   </g>
   <g id="line2d_10">
    <path clip-path="url(#pe436cf65af)" d="M 72.257271 54.763074 
L 74.234265 81.163163 
L 76.211259 91.850355 
L 78.188253 97.645652 
L 80.165247 101.288986 
L 82.142241 103.796036 
L 84.119235 105.630198 
L 86.096229 107.033047 
L 88.073223 108.14288 
L 90.050217 109.044578 
L 92.027211 109.793123 
L 94.004205 110.425699 
L 95.981199 110.968354 
L 97.958193 111.439878 
L 99.935187 111.854167 
L 101.912181 112.221718 
L 103.889175 112.550609 
L 105.866169 112.847159 
L 107.843163 113.11638 
L 109.820157 113.362298 
L 111.797151 113.588187 
L 113.774145 113.796734 
L 115.751139 113.990167 
L 117.728133 114.170347 
L 119.705127 114.338842 
L 121.682121 114.496981 
L 123.659115 114.645899 
L 125.636109 114.786573 
L 127.613103 114.919844 
L 129.590097 115.046444 
L 131.567091 115.167011 
L 133.544085 115.282103 
L 135.521079 115.392214 
L 137.498073 115.497778 
L 139.475067 115.59918 
L 141.452061 115.696764 
L 143.429055 115.790836 
L 145.406049 115.881671 
L 147.383043 115.969515 
L 149.360037 116.05459 
L 151.337031 116.137098 
L 153.314025 116.217219 
L 155.291019 116.295119 
L 157.268013 116.370948 
L 159.245007 116.444842 
L 161.222001 116.516928 
L 163.198995 116.587318 
L 165.175989 116.656119 
L 167.152983 116.723426 
L 169.129977 116.789329 
L 171.106971 116.853909 
L 173.083965 116.917243 
L 175.060959 116.979399 
L 177.037953 117.040443 
L 179.014947 117.100435 
L 180.991941 117.159432 
L 182.968935 117.217484 
L 184.945929 117.27464 
L 186.922923 117.330946 
L 188.899917 117.386443 
L 190.876911 117.441172 
L 192.853905 117.495168 
L 194.830899 117.548467 
L 196.807893 117.6011 
L 198.784887 117.653099 
L 200.761881 117.704492 
L 202.738875 117.755306 
L 204.715869 117.805566 
L 206.692863 117.855295 
L 208.669857 117.904517 
L 210.646851 117.953253 
L 212.623845 118.001523 
L 214.600839 118.049345 
L 216.577833 118.096739 
L 218.554827 118.143719 
L 220.531821 118.190304 
L 222.508815 118.236508 
L 224.485809 118.282345 
L 226.462803 118.32783 
L 228.439797 118.372975 
L 230.416791 118.417793 
L 232.393785 118.462295 
L 234.370779 118.506494 
L 236.347773 118.550399 
L 238.324767 118.594021 
L 240.301761 118.63737 
L 242.278755 118.680455 
L 244.255749 118.723285 
L 246.232743 118.765868 
L 248.209737 118.808213 
L 250.186731 118.850326 
L 252.163725 118.892217 
L 254.140719 118.933891 
L 256.117713 118.975356 
L 258.094707 119.016618 
L 260.071701 119.057683 
L 262.048695 119.098557 
L 264.025689 119.139247 
L 266.002683 119.179757 
" style="fill:none;stroke:#000000;stroke-linecap:square;stroke-width:1.5;"/>
   </g>
   <g id="patch_3">
    <path d="M 62.57 187.23 
L 62.57 10.8 
" style="fill:none;stroke:#000000;stroke-linecap:square;stroke-linejoin:miter;stroke-width:0.8;"/>
   </g>
   <g id="patch_4">
    <path d="M 275.689954 187.23 
L 275.689954 10.8 
" style="fill:none;stroke:#000000;stroke-linecap:square;stroke-linejoin:miter;stroke-width:0.8;"/>
   </g>
   <g id="patch_5">
    <path d="M 62.57 187.23 
L 275.689954 187.23 
" style="fill:none;stroke:#000000;stroke-linecap:square;stroke-linejoin:miter;stroke-width:0.8;"/>
   </g>
   <g id="patch_6">
    <path d="M 62.57 10.8 
L 275.689954 10.8 
" style="fill:none;stroke:#000000;stroke-linecap:square;stroke-linejoin:miter;stroke-width:0.8;"/>
   </g>
  </g>
  <g id="axes_2">
   <g id="patch_7">
    <path d="M 62.57 246.04 
L 275.689954 246.04 
L 275.689954 187.23 
L 62.57 187.23 
z
" style="fill:#ffffff;"/>
   </g>
   <g id="matplotlib.axis_3">
    <g id="xtick_5">
     <g id="line2d_11">
      <g>
       <use style="stroke:#000000;stroke-width:0.8;" x="70.280277" xlink:href="#m958b9b1f79" y="246.04"/>
      </g>
     </g>
     <g id="text_7">
      <!-- 0 -->
      <g transform="translate(67.099027 260.638438)scale(0.1 -0.1)">
       <use xlink:href="#DejaVuSans-48"/>
      </g>
     </g>
    </g>
    <g id="xtick_6">
     <g id="line2d_12">
      <g>
       <use style="stroke:#000000;stroke-width:0.8;" x="136.180077" xlink:href="#m958b9b1f79" y="246.04"/>
      </g>
     </g>
     <g id="text_8">
      <!-- 100 -->
      <g transform="translate(126.636327 260.638438)scale(0.1 -0.1)">
       <defs>
        <path d="M 12.40625 8.296875 
L 28.515625 8.296875 
L 28.515625 63.921875 
L 10.984375 60.40625 
L 10.984375 69.390625 
L 28.421875 72.90625 
L 38.28125 72.90625 
L 38.28125 8.296875 
L 54.390625 8.296875 
L 54.390625 0 
L 12.40625 0 
z
" id="DejaVuSans-49"/>
       </defs>
       <use xlink:href="#DejaVuSans-49"/>
       <use x="63.623047" xlink:href="#DejaVuSans-48"/>
       <use x="127.246094" xlink:href="#DejaVuSans-48"/>
      </g>
     </g>
    </g>
    <g id="xtick_7">
     <g id="line2d_13">
      <g>
       <use style="stroke:#000000;stroke-width:0.8;" x="202.079877" xlink:href="#m958b9b1f79" y="246.04"/>
      </g>
     </g>
     <g id="text_9">
      <!-- 200 -->
      <g transform="translate(192.536127 260.638438)scale(0.1 -0.1)">
       <use xlink:href="#DejaVuSans-50"/>
       <use x="63.623047" xlink:href="#DejaVuSans-48"/>
       <use x="127.246094" xlink:href="#DejaVuSans-48"/>
      </g>
     </g>
    </g>
    <g id="xtick_8">
     <g id="line2d_14">
      <g>
       <use style="stroke:#000000;stroke-width:0.8;" x="267.979677" xlink:href="#m958b9b1f79" y="246.04"/>
      </g>
     </g>
     <g id="text_10">
      <!-- 300 -->
      <g transform="translate(258.435927 260.638438)scale(0.1 -0.1)">
       <use xlink:href="#DejaVuSans-51"/>
       <use x="63.623047" xlink:href="#DejaVuSans-48"/>
       <use x="127.246094" xlink:href="#DejaVuSans-48"/>
      </g>
     </g>
    </g>
    <g id="text_11">
     <!-- $l$ -->
     <g transform="translate(167.629977 274.316562)scale(0.1 -0.1)">
      <defs>
       <path d="M 4.390625 8.109375 
Q 4.390625 8.40625 4.46875 8.984375 
Q 4.546875 9.578125 4.609375 10.125 
Q 4.6875 10.6875 4.6875 10.984375 
L 17.09375 60.5 
Q 17.484375 62.203125 17.578125 63.1875 
Q 17.578125 64.796875 11.078125 64.796875 
Q 10.109375 64.796875 10.109375 66.109375 
Q 10.15625 66.359375 10.328125 66.984375 
Q 10.5 67.625 10.765625 67.96875 
Q 11.03125 68.3125 11.53125 68.3125 
L 25 69.390625 
Q 26.21875 69.390625 26.21875 68.109375 
L 11.8125 10.59375 
Q 11.078125 8.984375 11.078125 5.8125 
Q 11.078125 1.515625 14.015625 1.515625 
Q 17.09375 1.515625 18.625 5.34375 
Q 20.171875 9.1875 21.390625 14.703125 
Q 21.578125 15.28125 22.21875 15.28125 
L 23.390625 15.28125 
Q 23.78125 15.28125 24.046875 14.96875 
Q 24.3125 14.65625 24.3125 14.3125 
Q 23.140625 9.46875 22.1875 6.65625 
Q 21.234375 3.859375 19.140625 1.359375 
Q 17.046875 -1.125 13.8125 -1.125 
Q 9.8125 -1.125 7.09375 1.453125 
Q 4.390625 4.046875 4.390625 8.109375 
z
" id="Cmmi10-108"/>
      </defs>
      <use transform="translate(0 0.609375)" xlink:href="#Cmmi10-108"/>
     </g>
    </g>
   </g>
   <g id="matplotlib.axis_4">
    <g id="ytick_6">
     <g id="line2d_15">
      <g>
       <use style="stroke:#000000;stroke-width:0.8;" x="62.57" xlink:href="#mac007da62a" y="238.587346"/>
      </g>
     </g>
     <g id="text_12">
      <!-- −0.01 -->
      <g transform="translate(24.924688 242.386565)scale(0.1 -0.1)">
       <defs>
        <path d="M 10.59375 35.5 
L 73.1875 35.5 
L 73.1875 27.203125 
L 10.59375 27.203125 
z
" id="DejaVuSans-8722"/>
       </defs>
       <use xlink:href="#DejaVuSans-8722"/>
       <use x="83.789062" xlink:href="#DejaVuSans-48"/>
       <use x="147.412109" xlink:href="#DejaVuSans-46"/>
       <use x="179.199219" xlink:href="#DejaVuSans-48"/>
       <use x="242.822266" xlink:href="#DejaVuSans-49"/>
      </g>
     </g>
    </g>
    <g id="ytick_7">
     <g id="line2d_16">
      <g>
       <use style="stroke:#000000;stroke-width:0.8;" x="62.57" xlink:href="#mac007da62a" y="215.612803"/>
      </g>
     </g>
     <g id="text_13">
      <!-- 0.00 -->
      <g transform="translate(33.304375 219.412021)scale(0.1 -0.1)">
       <use xlink:href="#DejaVuSans-48"/>
       <use x="63.623047" xlink:href="#DejaVuSans-46"/>
       <use x="95.410156" xlink:href="#DejaVuSans-48"/>
       <use x="159.033203" xlink:href="#DejaVuSans-48"/>
      </g>
     </g>
    </g>
    <g id="ytick_8">
     <g id="line2d_17">
      <g>
       <use style="stroke:#000000;stroke-width:0.8;" x="62.57" xlink:href="#mac007da62a" y="192.638259"/>
      </g>
     </g>
     <g id="text_14">
      <!-- 0.01 -->
      <g transform="translate(33.304375 196.437478)scale(0.1 -0.1)">
       <use xlink:href="#DejaVuSans-48"/>
       <use x="63.623047" xlink:href="#DejaVuSans-46"/>
       <use x="95.410156" xlink:href="#DejaVuSans-48"/>
       <use x="159.033203" xlink:href="#DejaVuSans-49"/>
      </g>
     </g>
    </g>
    <g id="text_15">
     <!-- Residual -->
     <g transform="translate(18.845 237.750625)rotate(-90)scale(0.1 -0.1)">
      <defs>
       <path d="M 44.390625 34.1875 
Q 47.5625 33.109375 50.5625 29.59375 
Q 53.5625 26.078125 56.59375 19.921875 
L 66.609375 0 
L 56 0 
L 46.6875 18.703125 
Q 43.0625 26.03125 39.671875 28.421875 
Q 36.28125 30.8125 30.421875 30.8125 
L 19.671875 30.8125 
L 19.671875 0 
L 9.8125 0 
L 9.8125 72.90625 
L 32.078125 72.90625 
Q 44.578125 72.90625 50.734375 67.671875 
Q 56.890625 62.453125 56.890625 51.90625 
Q 56.890625 45.015625 53.6875 40.46875 
Q 50.484375 35.9375 44.390625 34.1875 
z
M 19.671875 64.796875 
L 19.671875 38.921875 
L 32.078125 38.921875 
Q 39.203125 38.921875 42.84375 42.21875 
Q 46.484375 45.515625 46.484375 51.90625 
Q 46.484375 58.296875 42.84375 61.546875 
Q 39.203125 64.796875 32.078125 64.796875 
z
" id="DejaVuSans-82"/>
       <path d="M 56.203125 29.59375 
L 56.203125 25.203125 
L 14.890625 25.203125 
Q 15.484375 15.921875 20.484375 11.0625 
Q 25.484375 6.203125 34.421875 6.203125 
Q 39.59375 6.203125 44.453125 7.46875 
Q 49.3125 8.734375 54.109375 11.28125 
L 54.109375 2.78125 
Q 49.265625 0.734375 44.1875 -0.34375 
Q 39.109375 -1.421875 33.890625 -1.421875 
Q 20.796875 -1.421875 13.15625 6.1875 
Q 5.515625 13.8125 5.515625 26.8125 
Q 5.515625 40.234375 12.765625 48.109375 
Q 20.015625 56 32.328125 56 
Q 43.359375 56 49.78125 48.890625 
Q 56.203125 41.796875 56.203125 29.59375 
z
M 47.21875 32.234375 
Q 47.125 39.59375 43.09375 43.984375 
Q 39.0625 48.390625 32.421875 48.390625 
Q 24.90625 48.390625 20.390625 44.140625 
Q 15.875 39.890625 15.1875 32.171875 
z
" id="DejaVuSans-101"/>
       <path d="M 44.28125 53.078125 
L 44.28125 44.578125 
Q 40.484375 46.53125 36.375 47.5 
Q 32.28125 48.484375 27.875 48.484375 
Q 21.1875 48.484375 17.84375 46.4375 
Q 14.5 44.390625 14.5 40.28125 
Q 14.5 37.15625 16.890625 35.375 
Q 19.28125 33.59375 26.515625 31.984375 
L 29.59375 31.296875 
Q 39.15625 29.25 43.1875 25.515625 
Q 47.21875 21.78125 47.21875 15.09375 
Q 47.21875 7.46875 41.1875 3.015625 
Q 35.15625 -1.421875 24.609375 -1.421875 
Q 20.21875 -1.421875 15.453125 -0.5625 
Q 10.6875 0.296875 5.421875 2 
L 5.421875 11.28125 
Q 10.40625 8.6875 15.234375 7.390625 
Q 20.0625 6.109375 24.8125 6.109375 
Q 31.15625 6.109375 34.5625 8.28125 
Q 37.984375 10.453125 37.984375 14.40625 
Q 37.984375 18.0625 35.515625 20.015625 
Q 33.0625 21.96875 24.703125 23.78125 
L 21.578125 24.515625 
Q 13.234375 26.265625 9.515625 29.90625 
Q 5.8125 33.546875 5.8125 39.890625 
Q 5.8125 47.609375 11.28125 51.796875 
Q 16.75 56 26.8125 56 
Q 31.78125 56 36.171875 55.265625 
Q 40.578125 54.546875 44.28125 53.078125 
z
" id="DejaVuSans-115"/>
       <path d="M 9.421875 54.6875 
L 18.40625 54.6875 
L 18.40625 0 
L 9.421875 0 
z
M 9.421875 75.984375 
L 18.40625 75.984375 
L 18.40625 64.59375 
L 9.421875 64.59375 
z
" id="DejaVuSans-105"/>
       <path d="M 45.40625 46.390625 
L 45.40625 75.984375 
L 54.390625 75.984375 
L 54.390625 0 
L 45.40625 0 
L 45.40625 8.203125 
Q 42.578125 3.328125 38.25 0.953125 
Q 33.9375 -1.421875 27.875 -1.421875 
Q 17.96875 -1.421875 11.734375 6.484375 
Q 5.515625 14.40625 5.515625 27.296875 
Q 5.515625 40.1875 11.734375 48.09375 
Q 17.96875 56 27.875 56 
Q 33.9375 56 38.25 53.625 
Q 42.578125 51.265625 45.40625 46.390625 
z
M 14.796875 27.296875 
Q 14.796875 17.390625 18.875 11.75 
Q 22.953125 6.109375 30.078125 6.109375 
Q 37.203125 6.109375 41.296875 11.75 
Q 45.40625 17.390625 45.40625 27.296875 
Q 45.40625 37.203125 41.296875 42.84375 
Q 37.203125 48.484375 30.078125 48.484375 
Q 22.953125 48.484375 18.875 42.84375 
Q 14.796875 37.203125 14.796875 27.296875 
z
" id="DejaVuSans-100"/>
       <path d="M 8.5 21.578125 
L 8.5 54.6875 
L 17.484375 54.6875 
L 17.484375 21.921875 
Q 17.484375 14.15625 20.5 10.265625 
Q 23.53125 6.390625 29.59375 6.390625 
Q 36.859375 6.390625 41.078125 11.03125 
Q 45.3125 15.671875 45.3125 23.6875 
L 45.3125 54.6875 
L 54.296875 54.6875 
L 54.296875 0 
L 45.3125 0 
L 45.3125 8.40625 
Q 42.046875 3.421875 37.71875 1 
Q 33.40625 -1.421875 27.6875 -1.421875 
Q 18.265625 -1.421875 13.375 4.4375 
Q 8.5 10.296875 8.5 21.578125 
z
M 31.109375 56 
z
" id="DejaVuSans-117"/>
       <path d="M 34.28125 27.484375 
Q 23.390625 27.484375 19.1875 25 
Q 14.984375 22.515625 14.984375 16.5 
Q 14.984375 11.71875 18.140625 8.90625 
Q 21.296875 6.109375 26.703125 6.109375 
Q 34.1875 6.109375 38.703125 11.40625 
Q 43.21875 16.703125 43.21875 25.484375 
L 43.21875 27.484375 
z
M 52.203125 31.203125 
L 52.203125 0 
L 43.21875 0 
L 43.21875 8.296875 
Q 40.140625 3.328125 35.546875 0.953125 
Q 30.953125 -1.421875 24.3125 -1.421875 
Q 15.921875 -1.421875 10.953125 3.296875 
Q 6 8.015625 6 15.921875 
Q 6 25.140625 12.171875 29.828125 
Q 18.359375 34.515625 30.609375 34.515625 
L 43.21875 34.515625 
L 43.21875 35.40625 
Q 43.21875 41.609375 39.140625 45 
Q 35.0625 48.390625 27.6875 48.390625 
Q 23 48.390625 18.546875 47.265625 
Q 14.109375 46.140625 10.015625 43.890625 
L 10.015625 52.203125 
Q 14.9375 54.109375 19.578125 55.046875 
Q 24.21875 56 28.609375 56 
Q 40.484375 56 46.34375 49.84375 
Q 52.203125 43.703125 52.203125 31.203125 
z
" id="DejaVuSans-97"/>
       <path d="M 9.421875 75.984375 
L 18.40625 75.984375 
L 18.40625 0 
L 9.421875 0 
z
" id="DejaVuSans-108"/>
      </defs>
      <use xlink:href="#DejaVuSans-82"/>
      <use x="64.982422" xlink:href="#DejaVuSans-101"/>
      <use x="126.505859" xlink:href="#DejaVuSans-115"/>
      <use x="178.605469" xlink:href="#DejaVuSans-105"/>
      <use x="206.388672" xlink:href="#DejaVuSans-100"/>
      <use x="269.865234" xlink:href="#DejaVuSans-117"/>
      <use x="333.244141" xlink:href="#DejaVuSans-97"/>
      <use x="394.523438" xlink:href="#DejaVuSans-108"/>
     </g>
    </g>
   </g>
   <g id="LineCollection_1">
    <path clip-path="url(#p2eae35f351)" d="M 72.257271 215.612803 
L 72.257271 201.531986 
" style="fill:none;stroke:#000000;stroke-width:1.5;"/>
    <path clip-path="url(#p2eae35f351)" d="M 74.234265 215.612803 
L 74.234265 214.747859 
" style="fill:none;stroke:#000000;stroke-width:1.5;"/>
    <path clip-path="url(#p2eae35f351)" d="M 76.211259 215.612803 
L 76.211259 218.417934 
" style="fill:none;stroke:#000000;stroke-width:1.5;"/>
    <path clip-path="url(#p2eae35f351)" d="M 78.188253 215.612803 
L 78.188253 218.709282 
" style="fill:none;stroke:#000000;stroke-width:1.5;"/>
    <path clip-path="url(#p2eae35f351)" d="M 80.165247 215.612803 
L 80.165247 222.329345 
" style="fill:none;stroke:#000000;stroke-width:1.5;"/>
    <path clip-path="url(#p2eae35f351)" d="M 82.142241 215.612803 
L 82.142241 228.878556 
" style="fill:none;stroke:#000000;stroke-width:1.5;"/>
    <path clip-path="url(#p2eae35f351)" d="M 84.119235 215.612803 
L 84.119235 216.561297 
" style="fill:none;stroke:#000000;stroke-width:1.5;"/>
    <path clip-path="url(#p2eae35f351)" d="M 86.096229 215.612803 
L 86.096229 219.084581 
" style="fill:none;stroke:#000000;stroke-width:1.5;"/>
    <path clip-path="url(#p2eae35f351)" d="M 88.073223 215.612803 
L 88.073223 212.966868 
" style="fill:none;stroke:#000000;stroke-width:1.5;"/>
    <path clip-path="url(#p2eae35f351)" d="M 90.050217 215.612803 
L 90.050217 234.519801 
" style="fill:none;stroke:#000000;stroke-width:1.5;"/>
    <path clip-path="url(#p2eae35f351)" d="M 92.027211 215.612803 
L 92.027211 220.649963 
" style="fill:none;stroke:#000000;stroke-width:1.5;"/>
    <path clip-path="url(#p2eae35f351)" d="M 94.004205 215.612803 
L 94.004205 224.597224 
" style="fill:none;stroke:#000000;stroke-width:1.5;"/>
    <path clip-path="url(#p2eae35f351)" d="M 95.981199 215.612803 
L 95.981199 209.829757 
" style="fill:none;stroke:#000000;stroke-width:1.5;"/>
    <path clip-path="url(#p2eae35f351)" d="M 97.958193 215.612803 
L 97.958193 216.238529 
" style="fill:none;stroke:#000000;stroke-width:1.5;"/>
    <path clip-path="url(#p2eae35f351)" d="M 99.935187 215.612803 
L 99.935187 213.097416 
" style="fill:none;stroke:#000000;stroke-width:1.5;"/>
    <path clip-path="url(#p2eae35f351)" d="M 101.912181 215.612803 
L 101.912181 210.136764 
" style="fill:none;stroke:#000000;stroke-width:1.5;"/>
    <path clip-path="url(#p2eae35f351)" d="M 103.889175 215.612803 
L 103.889175 226.322499 
" style="fill:none;stroke:#000000;stroke-width:1.5;"/>
    <path clip-path="url(#p2eae35f351)" d="M 105.866169 215.612803 
L 105.866169 226.907253 
" style="fill:none;stroke:#000000;stroke-width:1.5;"/>
    <path clip-path="url(#p2eae35f351)" d="M 107.843163 215.612803 
L 107.843163 218.328879 
" style="fill:none;stroke:#000000;stroke-width:1.5;"/>
    <path clip-path="url(#p2eae35f351)" d="M 109.820157 215.612803 
L 109.820157 233.032618 
" style="fill:none;stroke:#000000;stroke-width:1.5;"/>
    <path clip-path="url(#p2eae35f351)" d="M 111.797151 215.612803 
L 111.797151 218.067415 
" style="fill:none;stroke:#000000;stroke-width:1.5;"/>
    <path clip-path="url(#p2eae35f351)" d="M 113.774145 215.612803 
L 113.774145 215.715031 
" style="fill:none;stroke:#000000;stroke-width:1.5;"/>
    <path clip-path="url(#p2eae35f351)" d="M 115.751139 215.612803 
L 115.751139 216.80389 
" style="fill:none;stroke:#000000;stroke-width:1.5;"/>
    <path clip-path="url(#p2eae35f351)" d="M 117.728133 215.612803 
L 117.728133 216.930222 
" style="fill:none;stroke:#000000;stroke-width:1.5;"/>
    <path clip-path="url(#p2eae35f351)" d="M 119.705127 215.612803 
L 119.705127 243.366818 
" style="fill:none;stroke:#000000;stroke-width:1.5;"/>
    <path clip-path="url(#p2eae35f351)" d="M 121.682121 215.612803 
L 121.682121 203.249288 
" style="fill:none;stroke:#000000;stroke-width:1.5;"/>
    <path clip-path="url(#p2eae35f351)" d="M 123.659115 215.612803 
L 123.659115 214.579662 
" style="fill:none;stroke:#000000;stroke-width:1.5;"/>
    <path clip-path="url(#p2eae35f351)" d="M 125.636109 215.612803 
L 125.636109 209.311508 
" style="fill:none;stroke:#000000;stroke-width:1.5;"/>
    <path clip-path="url(#p2eae35f351)" d="M 127.613103 215.612803 
L 127.613103 208.306189 
" style="fill:none;stroke:#000000;stroke-width:1.5;"/>
    <path clip-path="url(#p2eae35f351)" d="M 129.590097 215.612803 
L 129.590097 210.744369 
" style="fill:none;stroke:#000000;stroke-width:1.5;"/>
    <path clip-path="url(#p2eae35f351)" d="M 131.567091 215.612803 
L 131.567091 221.390252 
" style="fill:none;stroke:#000000;stroke-width:1.5;"/>
    <path clip-path="url(#p2eae35f351)" d="M 133.544085 215.612803 
L 133.544085 197.88149 
" style="fill:none;stroke:#000000;stroke-width:1.5;"/>
    <path clip-path="url(#p2eae35f351)" d="M 135.521079 215.612803 
L 135.521079 217.136927 
" style="fill:none;stroke:#000000;stroke-width:1.5;"/>
    <path clip-path="url(#p2eae35f351)" d="M 137.498073 215.612803 
L 137.498073 214.507233 
" style="fill:none;stroke:#000000;stroke-width:1.5;"/>
    <path clip-path="url(#p2eae35f351)" d="M 139.475067 215.612803 
L 139.475067 221.400847 
" style="fill:none;stroke:#000000;stroke-width:1.5;"/>
    <path clip-path="url(#p2eae35f351)" d="M 141.452061 215.612803 
L 141.452061 206.6866 
" style="fill:none;stroke:#000000;stroke-width:1.5;"/>
    <path clip-path="url(#p2eae35f351)" d="M 143.429055 215.612803 
L 143.429055 222.946227 
" style="fill:none;stroke:#000000;stroke-width:1.5;"/>
    <path clip-path="url(#p2eae35f351)" d="M 145.406049 215.612803 
L 145.406049 220.469557 
" style="fill:none;stroke:#000000;stroke-width:1.5;"/>
    <path clip-path="url(#p2eae35f351)" d="M 147.383043 215.612803 
L 147.383043 197.35023 
" style="fill:none;stroke:#000000;stroke-width:1.5;"/>
    <path clip-path="url(#p2eae35f351)" d="M 149.360037 215.612803 
L 149.360037 209.231065 
" style="fill:none;stroke:#000000;stroke-width:1.5;"/>
    <path clip-path="url(#p2eae35f351)" d="M 151.337031 215.612803 
L 151.337031 215.403738 
" style="fill:none;stroke:#000000;stroke-width:1.5;"/>
    <path clip-path="url(#p2eae35f351)" d="M 153.314025 215.612803 
L 153.314025 210.828477 
" style="fill:none;stroke:#000000;stroke-width:1.5;"/>
    <path clip-path="url(#p2eae35f351)" d="M 155.291019 215.612803 
L 155.291019 212.207272 
" style="fill:none;stroke:#000000;stroke-width:1.5;"/>
    <path clip-path="url(#p2eae35f351)" d="M 157.268013 215.612803 
L 157.268013 221.530564 
" style="fill:none;stroke:#000000;stroke-width:1.5;"/>
    <path clip-path="url(#p2eae35f351)" d="M 159.245007 215.612803 
L 159.245007 221.996853 
" style="fill:none;stroke:#000000;stroke-width:1.5;"/>
    <path clip-path="url(#p2eae35f351)" d="M 161.222001 215.612803 
L 161.222001 201.017271 
" style="fill:none;stroke:#000000;stroke-width:1.5;"/>
    <path clip-path="url(#p2eae35f351)" d="M 163.198995 215.612803 
L 163.198995 215.516015 
" style="fill:none;stroke:#000000;stroke-width:1.5;"/>
    <path clip-path="url(#p2eae35f351)" d="M 165.175989 215.612803 
L 165.175989 216.112956 
" style="fill:none;stroke:#000000;stroke-width:1.5;"/>
    <path clip-path="url(#p2eae35f351)" d="M 167.152983 215.612803 
L 167.152983 201.632392 
" style="fill:none;stroke:#000000;stroke-width:1.5;"/>
    <path clip-path="url(#p2eae35f351)" d="M 169.129977 215.612803 
L 169.129977 221.26666 
" style="fill:none;stroke:#000000;stroke-width:1.5;"/>
    <path clip-path="url(#p2eae35f351)" d="M 171.106971 215.612803 
L 171.106971 218.209789 
" style="fill:none;stroke:#000000;stroke-width:1.5;"/>
    <path clip-path="url(#p2eae35f351)" d="M 173.083965 215.612803 
L 173.083965 230.142621 
" style="fill:none;stroke:#000000;stroke-width:1.5;"/>
    <path clip-path="url(#p2eae35f351)" d="M 175.060959 215.612803 
L 175.060959 223.306299 
" style="fill:none;stroke:#000000;stroke-width:1.5;"/>
    <path clip-path="url(#p2eae35f351)" d="M 177.037953 215.612803 
L 177.037953 216.008764 
" style="fill:none;stroke:#000000;stroke-width:1.5;"/>
    <path clip-path="url(#p2eae35f351)" d="M 179.014947 215.612803 
L 179.014947 207.623917 
" style="fill:none;stroke:#000000;stroke-width:1.5;"/>
    <path clip-path="url(#p2eae35f351)" d="M 180.991941 215.612803 
L 180.991941 199.493715 
" style="fill:none;stroke:#000000;stroke-width:1.5;"/>
    <path clip-path="url(#p2eae35f351)" d="M 182.968935 215.612803 
L 182.968935 225.478739 
" style="fill:none;stroke:#000000;stroke-width:1.5;"/>
    <path clip-path="url(#p2eae35f351)" d="M 184.945929 215.612803 
L 184.945929 215.342807 
" style="fill:none;stroke:#000000;stroke-width:1.5;"/>
    <path clip-path="url(#p2eae35f351)" d="M 186.922923 215.612803 
L 186.922923 218.19856 
" style="fill:none;stroke:#000000;stroke-width:1.5;"/>
    <path clip-path="url(#p2eae35f351)" d="M 188.899917 215.612803 
L 188.899917 214.093766 
" style="fill:none;stroke:#000000;stroke-width:1.5;"/>
    <path clip-path="url(#p2eae35f351)" d="M 190.876911 215.612803 
L 190.876911 221.160735 
" style="fill:none;stroke:#000000;stroke-width:1.5;"/>
    <path clip-path="url(#p2eae35f351)" d="M 192.853905 215.612803 
L 192.853905 223.512343 
" style="fill:none;stroke:#000000;stroke-width:1.5;"/>
    <path clip-path="url(#p2eae35f351)" d="M 194.830899 215.612803 
L 194.830899 223.813327 
" style="fill:none;stroke:#000000;stroke-width:1.5;"/>
    <path clip-path="url(#p2eae35f351)" d="M 196.807893 215.612803 
L 196.807893 222.795186 
" style="fill:none;stroke:#000000;stroke-width:1.5;"/>
    <path clip-path="url(#p2eae35f351)" d="M 198.784887 215.612803 
L 198.784887 218.372378 
" style="fill:none;stroke:#000000;stroke-width:1.5;"/>
    <path clip-path="url(#p2eae35f351)" d="M 200.761881 215.612803 
L 200.761881 203.605611 
" style="fill:none;stroke:#000000;stroke-width:1.5;"/>
    <path clip-path="url(#p2eae35f351)" d="M 202.738875 215.612803 
L 202.738875 223.337658 
" style="fill:none;stroke:#000000;stroke-width:1.5;"/>
    <path clip-path="url(#p2eae35f351)" d="M 204.715869 215.612803 
L 204.715869 219.264371 
" style="fill:none;stroke:#000000;stroke-width:1.5;"/>
    <path clip-path="url(#p2eae35f351)" d="M 206.692863 215.612803 
L 206.692863 221.862123 
" style="fill:none;stroke:#000000;stroke-width:1.5;"/>
    <path clip-path="url(#p2eae35f351)" d="M 208.669857 215.612803 
L 208.669857 221.594344 
" style="fill:none;stroke:#000000;stroke-width:1.5;"/>
    <path clip-path="url(#p2eae35f351)" d="M 210.646851 215.612803 
L 210.646851 212.395294 
" style="fill:none;stroke:#000000;stroke-width:1.5;"/>
    <path clip-path="url(#p2eae35f351)" d="M 212.623845 215.612803 
L 212.623845 230.825421 
" style="fill:none;stroke:#000000;stroke-width:1.5;"/>
    <path clip-path="url(#p2eae35f351)" d="M 214.600839 215.612803 
L 214.600839 219.620757 
" style="fill:none;stroke:#000000;stroke-width:1.5;"/>
    <path clip-path="url(#p2eae35f351)" d="M 216.577833 215.612803 
L 216.577833 217.723413 
" style="fill:none;stroke:#000000;stroke-width:1.5;"/>
    <path clip-path="url(#p2eae35f351)" d="M 218.554827 215.612803 
L 218.554827 220.460632 
" style="fill:none;stroke:#000000;stroke-width:1.5;"/>
    <path clip-path="url(#p2eae35f351)" d="M 220.531821 215.612803 
L 220.531821 200.49883 
" style="fill:none;stroke:#000000;stroke-width:1.5;"/>
    <path clip-path="url(#p2eae35f351)" d="M 222.508815 215.612803 
L 222.508815 216.192734 
" style="fill:none;stroke:#000000;stroke-width:1.5;"/>
    <path clip-path="url(#p2eae35f351)" d="M 224.485809 215.612803 
L 224.485809 211.326969 
" style="fill:none;stroke:#000000;stroke-width:1.5;"/>
    <path clip-path="url(#p2eae35f351)" d="M 226.462803 215.612803 
L 226.462803 189.903182 
" style="fill:none;stroke:#000000;stroke-width:1.5;"/>
    <path clip-path="url(#p2eae35f351)" d="M 228.439797 215.612803 
L 228.439797 203.274199 
" style="fill:none;stroke:#000000;stroke-width:1.5;"/>
    <path clip-path="url(#p2eae35f351)" d="M 230.416791 215.612803 
L 230.416791 211.715934 
" style="fill:none;stroke:#000000;stroke-width:1.5;"/>
    <path clip-path="url(#p2eae35f351)" d="M 232.393785 215.612803 
L 232.393785 224.550889 
" style="fill:none;stroke:#000000;stroke-width:1.5;"/>
    <path clip-path="url(#p2eae35f351)" d="M 234.370779 215.612803 
L 234.370779 212.259118 
" style="fill:none;stroke:#000000;stroke-width:1.5;"/>
    <path clip-path="url(#p2eae35f351)" d="M 236.347773 215.612803 
L 236.347773 218.561652 
" style="fill:none;stroke:#000000;stroke-width:1.5;"/>
    <path clip-path="url(#p2eae35f351)" d="M 238.324767 215.612803 
L 238.324767 202.156967 
" style="fill:none;stroke:#000000;stroke-width:1.5;"/>
    <path clip-path="url(#p2eae35f351)" d="M 240.301761 215.612803 
L 240.301761 206.135151 
" style="fill:none;stroke:#000000;stroke-width:1.5;"/>
    <path clip-path="url(#p2eae35f351)" d="M 242.278755 215.612803 
L 242.278755 196.614834 
" style="fill:none;stroke:#000000;stroke-width:1.5;"/>
    <path clip-path="url(#p2eae35f351)" d="M 244.255749 215.612803 
L 244.255749 209.383587 
" style="fill:none;stroke:#000000;stroke-width:1.5;"/>
    <path clip-path="url(#p2eae35f351)" d="M 246.232743 215.612803 
L 246.232743 207.598013 
" style="fill:none;stroke:#000000;stroke-width:1.5;"/>
    <path clip-path="url(#p2eae35f351)" d="M 248.209737 215.612803 
L 248.209737 216.520672 
" style="fill:none;stroke:#000000;stroke-width:1.5;"/>
    <path clip-path="url(#p2eae35f351)" d="M 250.186731 215.612803 
L 250.186731 219.853152 
" style="fill:none;stroke:#000000;stroke-width:1.5;"/>
    <path clip-path="url(#p2eae35f351)" d="M 252.163725 215.612803 
L 252.163725 207.150893 
" style="fill:none;stroke:#000000;stroke-width:1.5;"/>
    <path clip-path="url(#p2eae35f351)" d="M 254.140719 215.612803 
L 254.140719 221.470395 
" style="fill:none;stroke:#000000;stroke-width:1.5;"/>
    <path clip-path="url(#p2eae35f351)" d="M 256.117713 215.612803 
L 256.117713 206.88581 
" style="fill:none;stroke:#000000;stroke-width:1.5;"/>
    <path clip-path="url(#p2eae35f351)" d="M 258.094707 215.612803 
L 258.094707 213.935353 
" style="fill:none;stroke:#000000;stroke-width:1.5;"/>
    <path clip-path="url(#p2eae35f351)" d="M 260.071701 215.612803 
L 260.071701 232.331744 
" style="fill:none;stroke:#000000;stroke-width:1.5;"/>
    <path clip-path="url(#p2eae35f351)" d="M 262.048695 215.612803 
L 262.048695 216.050453 
" style="fill:none;stroke:#000000;stroke-width:1.5;"/>
    <path clip-path="url(#p2eae35f351)" d="M 264.025689 215.612803 
L 264.025689 217.524778 
" style="fill:none;stroke:#000000;stroke-width:1.5;"/>
    <path clip-path="url(#p2eae35f351)" d="M 266.002683 215.612803 
L 266.002683 204.647754 
" style="fill:none;stroke:#000000;stroke-width:1.5;"/>
   </g>
   <g id="line2d_18">
    <defs>
     <path d="M 0 2 
C 0.530406 2 1.03916 1.789267 1.414214 1.414214 
C 1.789267 1.03916 2 0.530406 2 0 
C 2 -0.530406 1.789267 -1.03916 1.414214 -1.414214 
C 1.03916 -1.789267 0.530406 -2 0 -2 
C -0.530406 -2 -1.03916 -1.789267 -1.414214 -1.414214 
C -1.789267 -1.03916 -2 -0.530406 -2 0 
C -2 0.530406 -1.789267 1.03916 -1.414214 1.414214 
C -1.03916 1.789267 -0.530406 2 0 2 
z
" id="m31b8949903" style="stroke:#000000;"/>
    </defs>
    <g clip-path="url(#p2eae35f351)">
     <use style="stroke:#000000;" x="72.257271" xlink:href="#m31b8949903" y="201.531986"/>
     <use style="stroke:#000000;" x="74.234265" xlink:href="#m31b8949903" y="214.747859"/>
     <use style="stroke:#000000;" x="76.211259" xlink:href="#m31b8949903" y="218.417934"/>
     <use style="stroke:#000000;" x="78.188253" xlink:href="#m31b8949903" y="218.709282"/>
     <use style="stroke:#000000;" x="80.165247" xlink:href="#m31b8949903" y="222.329345"/>
     <use style="stroke:#000000;" x="82.142241" xlink:href="#m31b8949903" y="228.878556"/>
     <use style="stroke:#000000;" x="84.119235" xlink:href="#m31b8949903" y="216.561297"/>
     <use style="stroke:#000000;" x="86.096229" xlink:href="#m31b8949903" y="219.084581"/>
     <use style="stroke:#000000;" x="88.073223" xlink:href="#m31b8949903" y="212.966868"/>
     <use style="stroke:#000000;" x="90.050217" xlink:href="#m31b8949903" y="234.519801"/>
     <use style="stroke:#000000;" x="92.027211" xlink:href="#m31b8949903" y="220.649963"/>
     <use style="stroke:#000000;" x="94.004205" xlink:href="#m31b8949903" y="224.597224"/>
     <use style="stroke:#000000;" x="95.981199" xlink:href="#m31b8949903" y="209.829757"/>
     <use style="stroke:#000000;" x="97.958193" xlink:href="#m31b8949903" y="216.238529"/>
     <use style="stroke:#000000;" x="99.935187" xlink:href="#m31b8949903" y="213.097416"/>
     <use style="stroke:#000000;" x="101.912181" xlink:href="#m31b8949903" y="210.136764"/>
     <use style="stroke:#000000;" x="103.889175" xlink:href="#m31b8949903" y="226.322499"/>
     <use style="stroke:#000000;" x="105.866169" xlink:href="#m31b8949903" y="226.907253"/>
     <use style="stroke:#000000;" x="107.843163" xlink:href="#m31b8949903" y="218.328879"/>
     <use style="stroke:#000000;" x="109.820157" xlink:href="#m31b8949903" y="233.032618"/>
     <use style="stroke:#000000;" x="111.797151" xlink:href="#m31b8949903" y="218.067415"/>
     <use style="stroke:#000000;" x="113.774145" xlink:href="#m31b8949903" y="215.715031"/>
     <use style="stroke:#000000;" x="115.751139" xlink:href="#m31b8949903" y="216.80389"/>
     <use style="stroke:#000000;" x="117.728133" xlink:href="#m31b8949903" y="216.930222"/>
     <use style="stroke:#000000;" x="119.705127" xlink:href="#m31b8949903" y="243.366818"/>
     <use style="stroke:#000000;" x="121.682121" xlink:href="#m31b8949903" y="203.249288"/>
     <use style="stroke:#000000;" x="123.659115" xlink:href="#m31b8949903" y="214.579662"/>
     <use style="stroke:#000000;" x="125.636109" xlink:href="#m31b8949903" y="209.311508"/>
     <use style="stroke:#000000;" x="127.613103" xlink:href="#m31b8949903" y="208.306189"/>
     <use style="stroke:#000000;" x="129.590097" xlink:href="#m31b8949903" y="210.744369"/>
     <use style="stroke:#000000;" x="131.567091" xlink:href="#m31b8949903" y="221.390252"/>
     <use style="stroke:#000000;" x="133.544085" xlink:href="#m31b8949903" y="197.88149"/>
     <use style="stroke:#000000;" x="135.521079" xlink:href="#m31b8949903" y="217.136927"/>
     <use style="stroke:#000000;" x="137.498073" xlink:href="#m31b8949903" y="214.507233"/>
     <use style="stroke:#000000;" x="139.475067" xlink:href="#m31b8949903" y="221.400847"/>
     <use style="stroke:#000000;" x="141.452061" xlink:href="#m31b8949903" y="206.6866"/>
     <use style="stroke:#000000;" x="143.429055" xlink:href="#m31b8949903" y="222.946227"/>
     <use style="stroke:#000000;" x="145.406049" xlink:href="#m31b8949903" y="220.469557"/>
     <use style="stroke:#000000;" x="147.383043" xlink:href="#m31b8949903" y="197.35023"/>
     <use style="stroke:#000000;" x="149.360037" xlink:href="#m31b8949903" y="209.231065"/>
     <use style="stroke:#000000;" x="151.337031" xlink:href="#m31b8949903" y="215.403738"/>
     <use style="stroke:#000000;" x="153.314025" xlink:href="#m31b8949903" y="210.828477"/>
     <use style="stroke:#000000;" x="155.291019" xlink:href="#m31b8949903" y="212.207272"/>
     <use style="stroke:#000000;" x="157.268013" xlink:href="#m31b8949903" y="221.530564"/>
     <use style="stroke:#000000;" x="159.245007" xlink:href="#m31b8949903" y="221.996853"/>
     <use style="stroke:#000000;" x="161.222001" xlink:href="#m31b8949903" y="201.017271"/>
     <use style="stroke:#000000;" x="163.198995" xlink:href="#m31b8949903" y="215.516015"/>
     <use style="stroke:#000000;" x="165.175989" xlink:href="#m31b8949903" y="216.112956"/>
     <use style="stroke:#000000;" x="167.152983" xlink:href="#m31b8949903" y="201.632392"/>
     <use style="stroke:#000000;" x="169.129977" xlink:href="#m31b8949903" y="221.26666"/>
     <use style="stroke:#000000;" x="171.106971" xlink:href="#m31b8949903" y="218.209789"/>
     <use style="stroke:#000000;" x="173.083965" xlink:href="#m31b8949903" y="230.142621"/>
     <use style="stroke:#000000;" x="175.060959" xlink:href="#m31b8949903" y="223.306299"/>
     <use style="stroke:#000000;" x="177.037953" xlink:href="#m31b8949903" y="216.008764"/>
     <use style="stroke:#000000;" x="179.014947" xlink:href="#m31b8949903" y="207.623917"/>
     <use style="stroke:#000000;" x="180.991941" xlink:href="#m31b8949903" y="199.493715"/>
     <use style="stroke:#000000;" x="182.968935" xlink:href="#m31b8949903" y="225.478739"/>
     <use style="stroke:#000000;" x="184.945929" xlink:href="#m31b8949903" y="215.342807"/>
     <use style="stroke:#000000;" x="186.922923" xlink:href="#m31b8949903" y="218.19856"/>
     <use style="stroke:#000000;" x="188.899917" xlink:href="#m31b8949903" y="214.093766"/>
     <use style="stroke:#000000;" x="190.876911" xlink:href="#m31b8949903" y="221.160735"/>
     <use style="stroke:#000000;" x="192.853905" xlink:href="#m31b8949903" y="223.512343"/>
     <use style="stroke:#000000;" x="194.830899" xlink:href="#m31b8949903" y="223.813327"/>
     <use style="stroke:#000000;" x="196.807893" xlink:href="#m31b8949903" y="222.795186"/>
     <use style="stroke:#000000;" x="198.784887" xlink:href="#m31b8949903" y="218.372378"/>
     <use style="stroke:#000000;" x="200.761881" xlink:href="#m31b8949903" y="203.605611"/>
     <use style="stroke:#000000;" x="202.738875" xlink:href="#m31b8949903" y="223.337658"/>
     <use style="stroke:#000000;" x="204.715869" xlink:href="#m31b8949903" y="219.264371"/>
     <use style="stroke:#000000;" x="206.692863" xlink:href="#m31b8949903" y="221.862123"/>
     <use style="stroke:#000000;" x="208.669857" xlink:href="#m31b8949903" y="221.594344"/>
     <use style="stroke:#000000;" x="210.646851" xlink:href="#m31b8949903" y="212.395294"/>
     <use style="stroke:#000000;" x="212.623845" xlink:href="#m31b8949903" y="230.825421"/>
     <use style="stroke:#000000;" x="214.600839" xlink:href="#m31b8949903" y="219.620757"/>
     <use style="stroke:#000000;" x="216.577833" xlink:href="#m31b8949903" y="217.723413"/>
     <use style="stroke:#000000;" x="218.554827" xlink:href="#m31b8949903" y="220.460632"/>
     <use style="stroke:#000000;" x="220.531821" xlink:href="#m31b8949903" y="200.49883"/>
     <use style="stroke:#000000;" x="222.508815" xlink:href="#m31b8949903" y="216.192734"/>
     <use style="stroke:#000000;" x="224.485809" xlink:href="#m31b8949903" y="211.326969"/>
     <use style="stroke:#000000;" x="226.462803" xlink:href="#m31b8949903" y="189.903182"/>
     <use style="stroke:#000000;" x="228.439797" xlink:href="#m31b8949903" y="203.274199"/>
     <use style="stroke:#000000;" x="230.416791" xlink:href="#m31b8949903" y="211.715934"/>
     <use style="stroke:#000000;" x="232.393785" xlink:href="#m31b8949903" y="224.550889"/>
     <use style="stroke:#000000;" x="234.370779" xlink:href="#m31b8949903" y="212.259118"/>
     <use style="stroke:#000000;" x="236.347773" xlink:href="#m31b8949903" y="218.561652"/>
     <use style="stroke:#000000;" x="238.324767" xlink:href="#m31b8949903" y="202.156967"/>
     <use style="stroke:#000000;" x="240.301761" xlink:href="#m31b8949903" y="206.135151"/>
     <use style="stroke:#000000;" x="242.278755" xlink:href="#m31b8949903" y="196.614834"/>
     <use style="stroke:#000000;" x="244.255749" xlink:href="#m31b8949903" y="209.383587"/>
     <use style="stroke:#000000;" x="246.232743" xlink:href="#m31b8949903" y="207.598013"/>
     <use style="stroke:#000000;" x="248.209737" xlink:href="#m31b8949903" y="216.520672"/>
     <use style="stroke:#000000;" x="250.186731" xlink:href="#m31b8949903" y="219.853152"/>
     <use style="stroke:#000000;" x="252.163725" xlink:href="#m31b8949903" y="207.150893"/>
     <use style="stroke:#000000;" x="254.140719" xlink:href="#m31b8949903" y="221.470395"/>
     <use style="stroke:#000000;" x="256.117713" xlink:href="#m31b8949903" y="206.88581"/>
     <use style="stroke:#000000;" x="258.094707" xlink:href="#m31b8949903" y="213.935353"/>
     <use style="stroke:#000000;" x="260.071701" xlink:href="#m31b8949903" y="232.331744"/>
     <use style="stroke:#000000;" x="262.048695" xlink:href="#m31b8949903" y="216.050453"/>
     <use style="stroke:#000000;" x="264.025689" xlink:href="#m31b8949903" y="217.524778"/>
     <use style="stroke:#000000;" x="266.002683" xlink:href="#m31b8949903" y="204.647754"/>
    </g>
   </g>
   <g id="line2d_19">
    <path clip-path="url(#p2eae35f351)" d="M 72.257271 215.612803 
L 266.002683 215.612803 
" style="fill:none;stroke:#ff0000;stroke-linecap:square;stroke-width:1.5;"/>
   </g>
   <g id="patch_8">
    <path d="M 62.57 246.04 
L 62.57 187.23 
" style="fill:none;stroke:#000000;stroke-linecap:square;stroke-linejoin:miter;stroke-width:0.8;"/>
   </g>
   <g id="patch_9">
    <path d="M 275.689954 246.04 
L 275.689954 187.23 
" style="fill:none;stroke:#000000;stroke-linecap:square;stroke-linejoin:miter;stroke-width:0.8;"/>
   </g>
   <g id="patch_10">
    <path d="M 62.57 246.04 
L 275.689954 246.04 
" style="fill:none;stroke:#000000;stroke-linecap:square;stroke-linejoin:miter;stroke-width:0.8;"/>
   </g>
   <g id="patch_11">
    <path d="M 62.57 187.23 
L 275.689954 187.23 
" style="fill:none;stroke:#000000;stroke-linecap:square;stroke-linejoin:miter;stroke-width:0.8;"/>
   </g>
  </g>
 </g>
 <defs>
  <clipPath id="pe436cf65af">
   <rect height="176.43" width="213.119954" x="62.57" y="10.8"/>
  </clipPath>
  <clipPath id="p2eae35f351">
   <rect height="58.81" width="213.119954" x="62.57" y="187.23"/>
  </clipPath>
 </defs>
</svg>
