<?xml version="1.0" encoding="utf-8" standalone="no"?>
<!DOCTYPE svg PUBLIC "-//W3C//DTD SVG 1.1//EN"
  "http://www.w3.org/Graphics/SVG/1.1/DTD/svg11.dtd">
<!-- Created with matplotlib (https://matplotlib.org/) -->
<svg height="288pt" version="1.1" viewBox="0 0 288 288" width="288pt" xmlns="http://www.w3.org/2000/svg" xmlns:xlink="http://www.w3.org/1999/xlink">
 <metadata>
  <rdf:RDF xmlns:cc="http://creativecommons.org/ns#" xmlns:dc="http://purl.org/dc/elements/1.1/" xmlns:rdf="http://www.w3.org/1999/02/22-rdf-syntax-ns#">
   <cc:Work>
    <dc:type rdf:resource="http://purl.org/dc/dcmitype/StillImage"/>
    <dc:date>2022-03-31T12:11:51.272272</dc:date>
    <dc:format>image/svg+xml</dc:format>
    <dc:creator>
     <cc:Agent>
      <dc:title>Matplotlib v3.3.4, https://matplotlib.org/</dc:title>
     </cc:Agent>
    </dc:creator>
   </cc:Work>
  </rdf:RDF>
 </metadata>
 <defs>
  <style type="text/css">*{stroke-linecap:butt;stroke-linejoin:round;}</style>
 </defs>
 <g id="figure_1">
  <g id="patch_1">
   <path d="M 0 288 
L 288 288 
L 288 0 
L 0 0 
z
" style="fill:#ffffff;"/>
  </g>
  <g id="axes_1">
   <g id="patch_2">
    <path d="M 68.96 187.23 
L 275.689954 187.23 
L 275.689954 10.8 
L 68.96 10.8 
z
" style="fill:#ffffff;"/>
   </g>
   <g id="PathCollection_1">
    <defs>
     <path d="M 0 2.236068 
C 0.593012 2.236068 1.161816 2.000462 1.581139 1.581139 
C 2.000462 1.161816 2.236068 0.593012 2.236068 -0 
C 2.236068 -0.593012 2.000462 -1.161816 1.581139 -1.581139 
C 1.161816 -2.000462 0.593012 -2.236068 0 -2.236068 
C -0.593012 -2.236068 -1.161816 -2.000462 -1.581139 -1.581139 
C -2.000462 -1.161816 -2.236068 -0.593012 -2.236068 0 
C -2.236068 0.593012 -2.000462 1.161816 -1.581139 1.581139 
C -1.161816 2.000462 -0.593012 2.236068 0 2.236068 
z
" id="C0_0_77fdb54d46"/>
    </defs>
    <g clip-path="url(#p5c71e500a3)">
     <use style="fill:none;stroke:#000000;" x="78.356816" xlink:href="#C0_0_77fdb54d46" y="66.171178"/>
    </g>
    <g clip-path="url(#p5c71e500a3)">
     <use style="fill:none;stroke:#000000;" x="80.274534" xlink:href="#C0_0_77fdb54d46" y="81.863929"/>
    </g>
    <g clip-path="url(#p5c71e500a3)">
     <use style="fill:none;stroke:#000000;" x="82.192251" xlink:href="#C0_0_77fdb54d46" y="89.577671"/>
    </g>
    <g clip-path="url(#p5c71e500a3)">
     <use style="fill:none;stroke:#000000;" x="84.109969" xlink:href="#C0_0_77fdb54d46" y="95.136923"/>
    </g>
    <g clip-path="url(#p5c71e500a3)">
     <use style="fill:none;stroke:#000000;" x="86.027686" xlink:href="#C0_0_77fdb54d46" y="95.847326"/>
    </g>
    <g clip-path="url(#p5c71e500a3)">
     <use style="fill:none;stroke:#000000;" x="87.945404" xlink:href="#C0_0_77fdb54d46" y="93.048285"/>
    </g>
    <g clip-path="url(#p5c71e500a3)">
     <use style="fill:none;stroke:#000000;" x="89.863121" xlink:href="#C0_0_77fdb54d46" y="104.861739"/>
    </g>
    <g clip-path="url(#p5c71e500a3)">
     <use style="fill:none;stroke:#000000;" x="91.780839" xlink:href="#C0_0_77fdb54d46" y="104.220255"/>
    </g>
    <g clip-path="url(#p5c71e500a3)">
     <use style="fill:none;stroke:#000000;" x="93.698557" xlink:href="#C0_0_77fdb54d46" y="110.286584"/>
    </g>
    <g clip-path="url(#p5c71e500a3)">
     <use style="fill:none;stroke:#000000;" x="95.616274" xlink:href="#C0_0_77fdb54d46" y="93.72636"/>
    </g>
    <g clip-path="url(#p5c71e500a3)">
     <use style="fill:none;stroke:#000000;" x="97.533992" xlink:href="#C0_0_77fdb54d46" y="105.712077"/>
    </g>
    <g clip-path="url(#p5c71e500a3)">
     <use style="fill:none;stroke:#000000;" x="99.451709" xlink:href="#C0_0_77fdb54d46" y="103.14663"/>
    </g>
    <g clip-path="url(#p5c71e500a3)">
     <use style="fill:none;stroke:#000000;" x="101.369427" xlink:href="#C0_0_77fdb54d46" y="115.653706"/>
    </g>
    <g clip-path="url(#p5c71e500a3)">
     <use style="fill:none;stroke:#000000;" x="103.287144" xlink:href="#C0_0_77fdb54d46" y="110.932922"/>
    </g>
    <g clip-path="url(#p5c71e500a3)">
     <use style="fill:none;stroke:#000000;" x="105.204862" xlink:href="#C0_0_77fdb54d46" y="113.892102"/>
    </g>
    <g clip-path="url(#p5c71e500a3)">
     <use style="fill:none;stroke:#000000;" x="107.12258" xlink:href="#C0_0_77fdb54d46" y="116.658337"/>
    </g>
    <g clip-path="url(#p5c71e500a3)">
     <use style="fill:none;stroke:#000000;" x="109.040297" xlink:href="#C0_0_77fdb54d46" y="103.873745"/>
    </g>
    <g clip-path="url(#p5c71e500a3)">
     <use style="fill:none;stroke:#000000;" x="110.958015" xlink:href="#C0_0_77fdb54d46" y="103.696534"/>
    </g>
    <g clip-path="url(#p5c71e500a3)">
     <use style="fill:none;stroke:#000000;" x="112.875732" xlink:href="#C0_0_77fdb54d46" y="110.915848"/>
    </g>
    <g clip-path="url(#p5c71e500a3)">
     <use style="fill:none;stroke:#000000;" x="114.79345" xlink:href="#C0_0_77fdb54d46" y="99.248978"/>
    </g>
    <g clip-path="url(#p5c71e500a3)">
     <use style="fill:none;stroke:#000000;" x="116.711167" xlink:href="#C0_0_77fdb54d46" y="111.59949"/>
    </g>
    <g clip-path="url(#p5c71e500a3)">
     <use style="fill:none;stroke:#000000;" x="118.628885" xlink:href="#C0_0_77fdb54d46" y="113.71391"/>
    </g>
    <g clip-path="url(#p5c71e500a3)">
     <use style="fill:none;stroke:#000000;" x="120.546603" xlink:href="#C0_0_77fdb54d46" y="113.025163"/>
    </g>
    <g clip-path="url(#p5c71e500a3)">
     <use style="fill:none;stroke:#000000;" x="122.46432" xlink:href="#C0_0_77fdb54d46" y="113.10299"/>
    </g>
    <g clip-path="url(#p5c71e500a3)">
     <use style="fill:none;stroke:#000000;" x="124.382038" xlink:href="#C0_0_77fdb54d46" y="91.852879"/>
    </g>
    <g clip-path="url(#p5c71e500a3)">
     <use style="fill:none;stroke:#000000;" x="126.299755" xlink:href="#C0_0_77fdb54d46" y="124.513748"/>
    </g>
    <g clip-path="url(#p5c71e500a3)">
     <use style="fill:none;stroke:#000000;" x="128.217473" xlink:href="#C0_0_77fdb54d46" y="115.482937"/>
    </g>
    <g clip-path="url(#p5c71e500a3)">
     <use style="fill:none;stroke:#000000;" x="130.13519" xlink:href="#C0_0_77fdb54d46" y="119.891804"/>
    </g>
    <g clip-path="url(#p5c71e500a3)">
     <use style="fill:none;stroke:#000000;" x="132.052908" xlink:href="#C0_0_77fdb54d46" y="120.839572"/>
    </g>
    <g clip-path="url(#p5c71e500a3)">
     <use style="fill:none;stroke:#000000;" x="133.970625" xlink:href="#C0_0_77fdb54d46" y="118.990789"/>
    </g>
    <g clip-path="url(#p5c71e500a3)">
     <use style="fill:none;stroke:#000000;" x="135.888343" xlink:href="#C0_0_77fdb54d46" y="110.486192"/>
    </g>
    <g clip-path="url(#p5c71e500a3)">
     <use style="fill:none;stroke:#000000;" x="137.806061" xlink:href="#C0_0_77fdb54d46" y="129.647796"/>
    </g>
    <g clip-path="url(#p5c71e500a3)">
     <use style="fill:none;stroke:#000000;" x="139.723778" xlink:href="#C0_0_77fdb54d46" y="114.157387"/>
    </g>
    <g clip-path="url(#p5c71e500a3)">
     <use style="fill:none;stroke:#000000;" x="141.641496" xlink:href="#C0_0_77fdb54d46" y="116.393497"/>
    </g>
    <g clip-path="url(#p5c71e500a3)">
     <use style="fill:none;stroke:#000000;" x="143.559213" xlink:href="#C0_0_77fdb54d46" y="110.909777"/>
    </g>
    <g clip-path="url(#p5c71e500a3)">
     <use style="fill:none;stroke:#000000;" x="145.476931" xlink:href="#C0_0_77fdb54d46" y="122.928663"/>
    </g>
    <g clip-path="url(#p5c71e500a3)">
     <use style="fill:none;stroke:#000000;" x="147.394648" xlink:href="#C0_0_77fdb54d46" y="109.849386"/>
    </g>
    <g clip-path="url(#p5c71e500a3)">
     <use style="fill:none;stroke:#000000;" x="149.312366" xlink:href="#C0_0_77fdb54d46" y="111.946788"/>
    </g>
    <g clip-path="url(#p5c71e500a3)">
     <use style="fill:none;stroke:#000000;" x="151.230084" xlink:href="#C0_0_77fdb54d46" y="130.765627"/>
    </g>
    <g clip-path="url(#p5c71e500a3)">
     <use style="fill:none;stroke:#000000;" x="153.147801" xlink:href="#C0_0_77fdb54d46" y="121.224995"/>
    </g>
    <g clip-path="url(#p5c71e500a3)">
     <use style="fill:none;stroke:#000000;" x="155.065519" xlink:href="#C0_0_77fdb54d46" y="116.306479"/>
    </g>
    <g clip-path="url(#p5c71e500a3)">
     <use style="fill:none;stroke:#000000;" x="156.983236" xlink:href="#C0_0_77fdb54d46" y="120.093421"/>
    </g>
    <g clip-path="url(#p5c71e500a3)">
     <use style="fill:none;stroke:#000000;" x="158.900954" xlink:href="#C0_0_77fdb54d46" y="119.054238"/>
    </g>
    <g clip-path="url(#p5c71e500a3)">
     <use style="fill:none;stroke:#000000;" x="160.818671" xlink:href="#C0_0_77fdb54d46" y="111.57645"/>
    </g>
    <g clip-path="url(#p5c71e500a3)">
     <use style="fill:none;stroke:#000000;" x="162.736389" xlink:href="#C0_0_77fdb54d46" y="111.272563"/>
    </g>
    <g clip-path="url(#p5c71e500a3)">
     <use style="fill:none;stroke:#000000;" x="164.654107" xlink:href="#C0_0_77fdb54d46" y="128.342049"/>
    </g>
    <g clip-path="url(#p5c71e500a3)">
     <use style="fill:none;stroke:#000000;" x="166.571824" xlink:href="#C0_0_77fdb54d46" y="116.665734"/>
    </g>
    <g clip-path="url(#p5c71e500a3)">
     <use style="fill:none;stroke:#000000;" x="168.489542" xlink:href="#C0_0_77fdb54d46" y="116.250901"/>
    </g>
    <g clip-path="url(#p5c71e500a3)">
     <use style="fill:none;stroke:#000000;" x="170.407259" xlink:href="#C0_0_77fdb54d46" y="128.050183"/>
    </g>
    <g clip-path="url(#p5c71e500a3)">
     <use style="fill:none;stroke:#000000;" x="172.324977" xlink:href="#C0_0_77fdb54d46" y="112.208643"/>
    </g>
    <g clip-path="url(#p5c71e500a3)">
     <use style="fill:none;stroke:#000000;" x="174.242694" xlink:href="#C0_0_77fdb54d46" y="114.749863"/>
    </g>
    <g clip-path="url(#p5c71e500a3)">
     <use style="fill:none;stroke:#000000;" x="176.160412" xlink:href="#C0_0_77fdb54d46" y="105.145362"/>
    </g>
    <g clip-path="url(#p5c71e500a3)">
     <use style="fill:none;stroke:#000000;" x="178.07813" xlink:href="#C0_0_77fdb54d46" y="110.746223"/>
    </g>
    <g clip-path="url(#p5c71e500a3)">
     <use style="fill:none;stroke:#000000;" x="179.995847" xlink:href="#C0_0_77fdb54d46" y="116.71964"/>
    </g>
    <g clip-path="url(#p5c71e500a3)">
     <use style="fill:none;stroke:#000000;" x="181.913565" xlink:href="#C0_0_77fdb54d46" y="123.572932"/>
    </g>
    <g clip-path="url(#p5c71e500a3)">
     <use style="fill:none;stroke:#000000;" x="183.831282" xlink:href="#C0_0_77fdb54d46" y="130.218919"/>
    </g>
    <g clip-path="url(#p5c71e500a3)">
     <use style="fill:none;stroke:#000000;" x="185.749" xlink:href="#C0_0_77fdb54d46" y="109.224223"/>
    </g>
    <g clip-path="url(#p5c71e500a3)">
     <use style="fill:none;stroke:#000000;" x="187.666717" xlink:href="#C0_0_77fdb54d46" y="117.493387"/>
    </g>
    <g clip-path="url(#p5c71e500a3)">
     <use style="fill:none;stroke:#000000;" x="189.584435" xlink:href="#C0_0_77fdb54d46" y="115.235997"/>
    </g>
    <g clip-path="url(#p5c71e500a3)">
     <use style="fill:none;stroke:#000000;" x="191.502152" xlink:href="#C0_0_77fdb54d46" y="118.617148"/>
    </g>
    <g clip-path="url(#p5c71e500a3)">
     <use style="fill:none;stroke:#000000;" x="193.41987" xlink:href="#C0_0_77fdb54d46" y="112.946305"/>
    </g>
    <g clip-path="url(#p5c71e500a3)">
     <use style="fill:none;stroke:#000000;" x="195.337588" xlink:href="#C0_0_77fdb54d46" y="111.095057"/>
    </g>
    <g clip-path="url(#p5c71e500a3)">
     <use style="fill:none;stroke:#000000;" x="197.255305" xlink:href="#C0_0_77fdb54d46" y="110.904503"/>
    </g>
    <g clip-path="url(#p5c71e500a3)">
     <use style="fill:none;stroke:#000000;" x="199.173023" xlink:href="#C0_0_77fdb54d46" y="111.782022"/>
    </g>
    <g clip-path="url(#p5c71e500a3)">
     <use style="fill:none;stroke:#000000;" x="201.09074" xlink:href="#C0_0_77fdb54d46" y="115.417325"/>
    </g>
    <g clip-path="url(#p5c71e500a3)">
     <use style="fill:none;stroke:#000000;" x="203.008458" xlink:href="#C0_0_77fdb54d46" y="127.432572"/>
    </g>
    <g clip-path="url(#p5c71e500a3)">
     <use style="fill:none;stroke:#000000;" x="204.926175" xlink:href="#C0_0_77fdb54d46" y="111.496722"/>
    </g>
    <g clip-path="url(#p5c71e500a3)">
     <use style="fill:none;stroke:#000000;" x="206.843893" xlink:href="#C0_0_77fdb54d46" y="114.84711"/>
    </g>
    <g clip-path="url(#p5c71e500a3)">
     <use style="fill:none;stroke:#000000;" x="208.761611" xlink:href="#C0_0_77fdb54d46" y="112.792173"/>
    </g>
    <g clip-path="url(#p5c71e500a3)">
     <use style="fill:none;stroke:#000000;" x="210.679328" xlink:href="#C0_0_77fdb54d46" y="113.058346"/>
    </g>
    <g clip-path="url(#p5c71e500a3)">
     <use style="fill:none;stroke:#000000;" x="212.597046" xlink:href="#C0_0_77fdb54d46" y="120.56004"/>
    </g>
    <g clip-path="url(#p5c71e500a3)">
     <use style="fill:none;stroke:#000000;" x="214.514763" xlink:href="#C0_0_77fdb54d46" y="105.676446"/>
    </g>
    <g clip-path="url(#p5c71e500a3)">
     <use style="fill:none;stroke:#000000;" x="216.432481" xlink:href="#C0_0_77fdb54d46" y="114.80215"/>
    </g>
    <g clip-path="url(#p5c71e500a3)">
     <use style="fill:none;stroke:#000000;" x="218.350198" xlink:href="#C0_0_77fdb54d46" y="116.386748"/>
    </g>
    <g clip-path="url(#p5c71e500a3)">
     <use style="fill:none;stroke:#000000;" x="220.267916" xlink:href="#C0_0_77fdb54d46" y="114.216068"/>
    </g>
    <g clip-path="url(#p5c71e500a3)">
     <use style="fill:none;stroke:#000000;" x="222.185634" xlink:href="#C0_0_77fdb54d46" y="130.435459"/>
    </g>
    <g clip-path="url(#p5c71e500a3)">
     <use style="fill:none;stroke:#000000;" x="224.103351" xlink:href="#C0_0_77fdb54d46" y="117.766654"/>
    </g>
    <g clip-path="url(#p5c71e500a3)">
     <use style="fill:none;stroke:#000000;" x="226.021069" xlink:href="#C0_0_77fdb54d46" y="121.754675"/>
    </g>
    <g clip-path="url(#p5c71e500a3)">
     <use style="fill:none;stroke:#000000;" x="227.938786" xlink:href="#C0_0_77fdb54d46" y="139.157449"/>
    </g>
    <g clip-path="url(#p5c71e500a3)">
     <use style="fill:none;stroke:#000000;" x="229.856504" xlink:href="#C0_0_77fdb54d46" y="128.36956"/>
    </g>
    <g clip-path="url(#p5c71e500a3)">
     <use style="fill:none;stroke:#000000;" x="231.774221" xlink:href="#C0_0_77fdb54d46" y="121.574988"/>
    </g>
    <g clip-path="url(#p5c71e500a3)">
     <use style="fill:none;stroke:#000000;" x="233.691939" xlink:href="#C0_0_77fdb54d46" y="111.220768"/>
    </g>
    <g clip-path="url(#p5c71e500a3)">
     <use style="fill:none;stroke:#000000;" x="235.609656" xlink:href="#C0_0_77fdb54d46" y="121.223608"/>
    </g>
    <g clip-path="url(#p5c71e500a3)">
     <use style="fill:none;stroke:#000000;" x="237.527374" xlink:href="#C0_0_77fdb54d46" y="116.161278"/>
    </g>
    <g clip-path="url(#p5c71e500a3)">
     <use style="fill:none;stroke:#000000;" x="239.445092" xlink:href="#C0_0_77fdb54d46" y="129.495774"/>
    </g>
    <g clip-path="url(#p5c71e500a3)">
     <use style="fill:none;stroke:#000000;" x="241.362809" xlink:href="#C0_0_77fdb54d46" y="126.316047"/>
    </g>
    <g clip-path="url(#p5c71e500a3)">
     <use style="fill:none;stroke:#000000;" x="243.280527" xlink:href="#C0_0_77fdb54d46" y="134.072376"/>
    </g>
    <g clip-path="url(#p5c71e500a3)">
     <use style="fill:none;stroke:#000000;" x="245.198244" xlink:href="#C0_0_77fdb54d46" y="123.770119"/>
    </g>
    <g clip-path="url(#p5c71e500a3)">
     <use style="fill:none;stroke:#000000;" x="247.115962" xlink:href="#C0_0_77fdb54d46" y="125.259352"/>
    </g>
    <g clip-path="url(#p5c71e500a3)">
     <use style="fill:none;stroke:#000000;" x="249.033679" xlink:href="#C0_0_77fdb54d46" y="118.072668"/>
    </g>
    <g clip-path="url(#p5c71e500a3)">
     <use style="fill:none;stroke:#000000;" x="250.951397" xlink:href="#C0_0_77fdb54d46" y="115.414848"/>
    </g>
    <g clip-path="url(#p5c71e500a3)">
     <use style="fill:none;stroke:#000000;" x="252.869115" xlink:href="#C0_0_77fdb54d46" y="125.747952"/>
    </g>
    <g clip-path="url(#p5c71e500a3)">
     <use style="fill:none;stroke:#000000;" x="254.786832" xlink:href="#C0_0_77fdb54d46" y="114.188141"/>
    </g>
    <g clip-path="url(#p5c71e500a3)">
     <use style="fill:none;stroke:#000000;" x="256.70455" xlink:href="#C0_0_77fdb54d46" y="126.045858"/>
    </g>
    <g clip-path="url(#p5c71e500a3)">
     <use style="fill:none;stroke:#000000;" x="258.622267" xlink:href="#C0_0_77fdb54d46" y="120.375667"/>
    </g>
    <g clip-path="url(#p5c71e500a3)">
     <use style="fill:none;stroke:#000000;" x="260.539985" xlink:href="#C0_0_77fdb54d46" y="105.512201"/>
    </g>
    <g clip-path="url(#p5c71e500a3)">
     <use style="fill:none;stroke:#000000;" x="262.457702" xlink:href="#C0_0_77fdb54d46" y="118.743979"/>
    </g>
    <g clip-path="url(#p5c71e500a3)">
     <use style="fill:none;stroke:#000000;" x="264.37542" xlink:href="#C0_0_77fdb54d46" y="117.590188"/>
    </g>
    <g clip-path="url(#p5c71e500a3)">
     <use style="fill:none;stroke:#000000;" x="266.293138" xlink:href="#C0_0_77fdb54d46" y="128.063504"/>
    </g>
   </g>
   <g id="matplotlib.axis_1">
    <g id="xtick_1">
     <g id="line2d_1">
      <defs>
       <path d="M 0 0 
L 0 3.5 
" id="m3c9a2ccc4d" style="stroke:#000000;stroke-width:0.8;"/>
      </defs>
      <g>
       <use style="stroke:#000000;stroke-width:0.8;" x="76.439099" xlink:href="#m3c9a2ccc4d" y="187.23"/>
      </g>
     </g>
    </g>
    <g id="xtick_2">
     <g id="line2d_2">
      <g>
       <use style="stroke:#000000;stroke-width:0.8;" x="140.363017" xlink:href="#m3c9a2ccc4d" y="187.23"/>
      </g>
     </g>
    </g>
    <g id="xtick_3">
     <g id="line2d_3">
      <g>
       <use style="stroke:#000000;stroke-width:0.8;" x="204.286936" xlink:href="#m3c9a2ccc4d" y="187.23"/>
      </g>
     </g>
    </g>
    <g id="xtick_4">
     <g id="line2d_4">
      <g>
       <use style="stroke:#000000;stroke-width:0.8;" x="268.210855" xlink:href="#m3c9a2ccc4d" y="187.23"/>
      </g>
     </g>
    </g>
   </g>
   <g id="matplotlib.axis_2">
    <g id="ytick_1">
     <g id="line2d_5">
      <defs>
       <path d="M 0 0 
L -3.5 0 
" id="mafe2155421" style="stroke:#000000;stroke-width:0.8;"/>
      </defs>
      <g>
       <use style="stroke:#000000;stroke-width:0.8;" x="68.96" xlink:href="#mafe2155421" y="173.154321"/>
      </g>
     </g>
     <g id="text_1">
      <!-- 0.24 -->
      <g transform="translate(39.694375 176.95354)scale(0.1 -0.1)">
       <defs>
        <path d="M 31.78125 66.40625 
Q 24.171875 66.40625 20.328125 58.90625 
Q 16.5 51.421875 16.5 36.375 
Q 16.5 21.390625 20.328125 13.890625 
Q 24.171875 6.390625 31.78125 6.390625 
Q 39.453125 6.390625 43.28125 13.890625 
Q 47.125 21.390625 47.125 36.375 
Q 47.125 51.421875 43.28125 58.90625 
Q 39.453125 66.40625 31.78125 66.40625 
z
M 31.78125 74.21875 
Q 44.046875 74.21875 50.515625 64.515625 
Q 56.984375 54.828125 56.984375 36.375 
Q 56.984375 17.96875 50.515625 8.265625 
Q 44.046875 -1.421875 31.78125 -1.421875 
Q 19.53125 -1.421875 13.0625 8.265625 
Q 6.59375 17.96875 6.59375 36.375 
Q 6.59375 54.828125 13.0625 64.515625 
Q 19.53125 74.21875 31.78125 74.21875 
z
" id="DejaVuSans-48"/>
        <path d="M 10.6875 12.40625 
L 21 12.40625 
L 21 0 
L 10.6875 0 
z
" id="DejaVuSans-46"/>
        <path d="M 19.1875 8.296875 
L 53.609375 8.296875 
L 53.609375 0 
L 7.328125 0 
L 7.328125 8.296875 
Q 12.9375 14.109375 22.625 23.890625 
Q 32.328125 33.6875 34.8125 36.53125 
Q 39.546875 41.84375 41.421875 45.53125 
Q 43.3125 49.21875 43.3125 52.78125 
Q 43.3125 58.59375 39.234375 62.25 
Q 35.15625 65.921875 28.609375 65.921875 
Q 23.96875 65.921875 18.8125 64.3125 
Q 13.671875 62.703125 7.8125 59.421875 
L 7.8125 69.390625 
Q 13.765625 71.78125 18.9375 73 
Q 24.125 74.21875 28.421875 74.21875 
Q 39.75 74.21875 46.484375 68.546875 
Q 53.21875 62.890625 53.21875 53.421875 
Q 53.21875 48.921875 51.53125 44.890625 
Q 49.859375 40.875 45.40625 35.40625 
Q 44.1875 33.984375 37.640625 27.21875 
Q 31.109375 20.453125 19.1875 8.296875 
z
" id="DejaVuSans-50"/>
        <path d="M 37.796875 64.3125 
L 12.890625 25.390625 
L 37.796875 25.390625 
z
M 35.203125 72.90625 
L 47.609375 72.90625 
L 47.609375 25.390625 
L 58.015625 25.390625 
L 58.015625 17.1875 
L 47.609375 17.1875 
L 47.609375 0 
L 37.796875 0 
L 37.796875 17.1875 
L 4.890625 17.1875 
L 4.890625 26.703125 
z
" id="DejaVuSans-52"/>
       </defs>
       <use xlink:href="#DejaVuSans-48"/>
       <use x="63.623047" xlink:href="#DejaVuSans-46"/>
       <use x="95.410156" xlink:href="#DejaVuSans-50"/>
       <use x="159.033203" xlink:href="#DejaVuSans-52"/>
      </g>
     </g>
    </g>
    <g id="ytick_2">
     <g id="line2d_6">
      <g>
       <use style="stroke:#000000;stroke-width:0.8;" x="68.96" xlink:href="#mafe2155421" y="135.926935"/>
      </g>
     </g>
     <g id="text_2">
      <!-- 0.26 -->
      <g transform="translate(39.694375 139.726153)scale(0.1 -0.1)">
       <defs>
        <path d="M 33.015625 40.375 
Q 26.375 40.375 22.484375 35.828125 
Q 18.609375 31.296875 18.609375 23.390625 
Q 18.609375 15.53125 22.484375 10.953125 
Q 26.375 6.390625 33.015625 6.390625 
Q 39.65625 6.390625 43.53125 10.953125 
Q 47.40625 15.53125 47.40625 23.390625 
Q 47.40625 31.296875 43.53125 35.828125 
Q 39.65625 40.375 33.015625 40.375 
z
M 52.59375 71.296875 
L 52.59375 62.3125 
Q 48.875 64.0625 45.09375 64.984375 
Q 41.3125 65.921875 37.59375 65.921875 
Q 27.828125 65.921875 22.671875 59.328125 
Q 17.53125 52.734375 16.796875 39.40625 
Q 19.671875 43.65625 24.015625 45.921875 
Q 28.375 48.1875 33.59375 48.1875 
Q 44.578125 48.1875 50.953125 41.515625 
Q 57.328125 34.859375 57.328125 23.390625 
Q 57.328125 12.15625 50.6875 5.359375 
Q 44.046875 -1.421875 33.015625 -1.421875 
Q 20.359375 -1.421875 13.671875 8.265625 
Q 6.984375 17.96875 6.984375 36.375 
Q 6.984375 53.65625 15.1875 63.9375 
Q 23.390625 74.21875 37.203125 74.21875 
Q 40.921875 74.21875 44.703125 73.484375 
Q 48.484375 72.75 52.59375 71.296875 
z
" id="DejaVuSans-54"/>
       </defs>
       <use xlink:href="#DejaVuSans-48"/>
       <use x="63.623047" xlink:href="#DejaVuSans-46"/>
       <use x="95.410156" xlink:href="#DejaVuSans-50"/>
       <use x="159.033203" xlink:href="#DejaVuSans-54"/>
      </g>
     </g>
    </g>
    <g id="ytick_3">
     <g id="line2d_7">
      <g>
       <use style="stroke:#000000;stroke-width:0.8;" x="68.96" xlink:href="#mafe2155421" y="98.699548"/>
      </g>
     </g>
     <g id="text_3">
      <!-- 0.28 -->
      <g transform="translate(39.694375 102.498767)scale(0.1 -0.1)">
       <defs>
        <path d="M 31.78125 34.625 
Q 24.75 34.625 20.71875 30.859375 
Q 16.703125 27.09375 16.703125 20.515625 
Q 16.703125 13.921875 20.71875 10.15625 
Q 24.75 6.390625 31.78125 6.390625 
Q 38.8125 6.390625 42.859375 10.171875 
Q 46.921875 13.96875 46.921875 20.515625 
Q 46.921875 27.09375 42.890625 30.859375 
Q 38.875 34.625 31.78125 34.625 
z
M 21.921875 38.8125 
Q 15.578125 40.375 12.03125 44.71875 
Q 8.5 49.078125 8.5 55.328125 
Q 8.5 64.0625 14.71875 69.140625 
Q 20.953125 74.21875 31.78125 74.21875 
Q 42.671875 74.21875 48.875 69.140625 
Q 55.078125 64.0625 55.078125 55.328125 
Q 55.078125 49.078125 51.53125 44.71875 
Q 48 40.375 41.703125 38.8125 
Q 48.828125 37.15625 52.796875 32.3125 
Q 56.78125 27.484375 56.78125 20.515625 
Q 56.78125 9.90625 50.3125 4.234375 
Q 43.84375 -1.421875 31.78125 -1.421875 
Q 19.734375 -1.421875 13.25 4.234375 
Q 6.78125 9.90625 6.78125 20.515625 
Q 6.78125 27.484375 10.78125 32.3125 
Q 14.796875 37.15625 21.921875 38.8125 
z
M 18.3125 54.390625 
Q 18.3125 48.734375 21.84375 45.5625 
Q 25.390625 42.390625 31.78125 42.390625 
Q 38.140625 42.390625 41.71875 45.5625 
Q 45.3125 48.734375 45.3125 54.390625 
Q 45.3125 60.0625 41.71875 63.234375 
Q 38.140625 66.40625 31.78125 66.40625 
Q 25.390625 66.40625 21.84375 63.234375 
Q 18.3125 60.0625 18.3125 54.390625 
z
" id="DejaVuSans-56"/>
       </defs>
       <use xlink:href="#DejaVuSans-48"/>
       <use x="63.623047" xlink:href="#DejaVuSans-46"/>
       <use x="95.410156" xlink:href="#DejaVuSans-50"/>
       <use x="159.033203" xlink:href="#DejaVuSans-56"/>
      </g>
     </g>
    </g>
    <g id="ytick_4">
     <g id="line2d_8">
      <g>
       <use style="stroke:#000000;stroke-width:0.8;" x="68.96" xlink:href="#mafe2155421" y="61.472161"/>
      </g>
     </g>
     <g id="text_4">
      <!-- 0.30 -->
      <g transform="translate(39.694375 65.27138)scale(0.1 -0.1)">
       <defs>
        <path d="M 40.578125 39.3125 
Q 47.65625 37.796875 51.625 33 
Q 55.609375 28.21875 55.609375 21.1875 
Q 55.609375 10.40625 48.1875 4.484375 
Q 40.765625 -1.421875 27.09375 -1.421875 
Q 22.515625 -1.421875 17.65625 -0.515625 
Q 12.796875 0.390625 7.625 2.203125 
L 7.625 11.71875 
Q 11.71875 9.328125 16.59375 8.109375 
Q 21.484375 6.890625 26.8125 6.890625 
Q 36.078125 6.890625 40.9375 10.546875 
Q 45.796875 14.203125 45.796875 21.1875 
Q 45.796875 27.640625 41.28125 31.265625 
Q 36.765625 34.90625 28.71875 34.90625 
L 20.21875 34.90625 
L 20.21875 43.015625 
L 29.109375 43.015625 
Q 36.375 43.015625 40.234375 45.921875 
Q 44.09375 48.828125 44.09375 54.296875 
Q 44.09375 59.90625 40.109375 62.90625 
Q 36.140625 65.921875 28.71875 65.921875 
Q 24.65625 65.921875 20.015625 65.03125 
Q 15.375 64.15625 9.8125 62.3125 
L 9.8125 71.09375 
Q 15.4375 72.65625 20.34375 73.4375 
Q 25.25 74.21875 29.59375 74.21875 
Q 40.828125 74.21875 47.359375 69.109375 
Q 53.90625 64.015625 53.90625 55.328125 
Q 53.90625 49.265625 50.4375 45.09375 
Q 46.96875 40.921875 40.578125 39.3125 
z
" id="DejaVuSans-51"/>
       </defs>
       <use xlink:href="#DejaVuSans-48"/>
       <use x="63.623047" xlink:href="#DejaVuSans-46"/>
       <use x="95.410156" xlink:href="#DejaVuSans-51"/>
       <use x="159.033203" xlink:href="#DejaVuSans-48"/>
      </g>
     </g>
    </g>
    <g id="ytick_5">
     <g id="line2d_9">
      <g>
       <use style="stroke:#000000;stroke-width:0.8;" x="68.96" xlink:href="#mafe2155421" y="24.244775"/>
      </g>
     </g>
     <g id="text_5">
      <!-- 0.32 -->
      <g transform="translate(39.694375 28.043993)scale(0.1 -0.1)">
       <use xlink:href="#DejaVuSans-48"/>
       <use x="63.623047" xlink:href="#DejaVuSans-46"/>
       <use x="95.410156" xlink:href="#DejaVuSans-51"/>
       <use x="159.033203" xlink:href="#DejaVuSans-50"/>
      </g>
     </g>
    </g>
    <g id="text_6">
     <!-- $P$ -->
     <g transform="translate(33.614688 102.265)rotate(-90)scale(0.1 -0.1)">
      <defs>
       <path d="M 4.890625 0 
Q 3.90625 0 3.90625 1.3125 
Q 3.953125 1.5625 4.09375 2.171875 
Q 4.25 2.78125 4.515625 3.140625 
Q 4.78125 3.515625 5.171875 3.515625 
Q 11.28125 3.515625 13.71875 4.203125 
Q 14.984375 4.640625 15.578125 6.890625 
L 29.296875 61.8125 
Q 29.5 62.796875 29.5 63.1875 
Q 29.5 64.265625 28.328125 64.40625 
Q 26.421875 64.796875 21.09375 64.796875 
Q 20.125 64.796875 20.125 66.109375 
Q 20.171875 66.359375 20.3125 66.96875 
Q 20.453125 67.578125 20.71875 67.9375 
Q 21 68.3125 21.390625 68.3125 
L 55.90625 68.3125 
Q 60.640625 68.3125 65.078125 66.625 
Q 69.53125 64.9375 72.359375 61.46875 
Q 75.203125 58.015625 75.203125 53.078125 
Q 75.203125 46.734375 70.734375 41.75 
Q 66.265625 36.765625 59.59375 33.984375 
Q 52.9375 31.203125 46.6875 31.203125 
L 30.421875 31.203125 
L 24.3125 6.5 
Q 24.125 5.515625 24.125 5.078125 
Q 24.125 4.6875 24.234375 4.421875 
Q 24.359375 4.15625 24.578125 4.078125 
Q 24.8125 4 25.296875 3.90625 
Q 27.203125 3.515625 32.515625 3.515625 
Q 33.5 3.515625 33.5 2.203125 
Q 33.15625 0.78125 32.953125 0.390625 
Q 32.765625 0 31.78125 0 
z
M 30.90625 34.1875 
L 44.921875 34.1875 
Q 54.640625 34.1875 59.71875 39.40625 
Q 62.3125 42 63.9375 46.875 
Q 65.578125 51.765625 65.578125 55.71875 
Q 65.578125 60.640625 61.8125 62.71875 
Q 58.0625 64.796875 52.484375 64.796875 
L 42.921875 64.796875 
Q 40.1875 64.796875 39.296875 64.328125 
Q 38.421875 63.875 37.703125 61.375 
z
" id="Cmmi10-80"/>
      </defs>
      <use transform="translate(0 0.6875)" xlink:href="#Cmmi10-80"/>
     </g>
    </g>
   </g>
   <g id="line2d_10">
    <path clip-path="url(#p5c71e500a3)" d="M 78.356816 114.45541 
L 80.274534 114.45541 
L 82.192251 114.45541 
L 84.109969 114.45541 
L 86.027686 114.45541 
L 87.945404 114.45541 
L 89.863121 114.45541 
L 91.780839 114.45541 
L 93.698557 114.45541 
L 95.616274 114.45541 
L 97.533992 114.45541 
L 99.451709 114.45541 
L 101.369427 114.45541 
L 103.287144 114.45541 
L 105.204862 114.45541 
L 107.12258 114.45541 
L 109.040297 114.45541 
L 110.958015 114.45541 
L 112.875732 114.45541 
L 114.79345 114.45541 
L 116.711167 114.45541 
L 118.628885 114.45541 
L 120.546603 114.45541 
L 122.46432 114.45541 
L 124.382038 114.45541 
L 126.299755 114.45541 
L 128.217473 114.45541 
L 130.13519 114.45541 
L 132.052908 114.45541 
L 133.970625 114.45541 
L 135.888343 114.45541 
L 137.806061 114.45541 
L 139.723778 114.45541 
L 141.641496 114.45541 
L 143.559213 114.45541 
L 145.476931 114.45541 
L 147.394648 114.45541 
L 149.312366 114.45541 
L 151.230084 114.45541 
L 153.147801 114.45541 
L 155.065519 114.45541 
L 156.983236 114.45541 
L 158.900954 114.45541 
L 160.818671 114.45541 
L 162.736389 114.45541 
L 164.654107 114.45541 
L 166.571824 114.45541 
L 168.489542 114.45541 
L 170.407259 114.45541 
L 172.324977 114.45541 
L 174.242694 114.45541 
L 176.160412 114.45541 
L 178.07813 114.45541 
L 179.995847 114.45541 
L 181.913565 114.45541 
L 183.831282 114.45541 
L 185.749 114.45541 
L 187.666717 114.45541 
L 189.584435 114.45541 
L 191.502152 114.45541 
L 193.41987 114.45541 
L 195.337588 114.45541 
L 197.255305 114.45541 
L 199.173023 114.45541 
L 201.09074 114.45541 
L 203.008458 114.45541 
L 204.926175 114.45541 
L 206.843893 114.45541 
L 208.761611 114.45541 
L 210.679328 114.45541 
L 212.597046 114.45541 
L 214.514763 114.45541 
L 216.432481 114.45541 
L 218.350198 114.45541 
L 220.267916 114.45541 
L 222.185634 114.45541 
L 224.103351 114.45541 
L 226.021069 114.45541 
L 227.938786 114.45541 
L 229.856504 114.45541 
L 231.774221 114.45541 
L 233.691939 114.45541 
L 235.609656 114.45541 
L 237.527374 114.45541 
L 239.445092 114.45541 
L 241.362809 114.45541 
L 243.280527 114.45541 
L 245.198244 114.45541 
L 247.115962 114.45541 
L 249.033679 114.45541 
L 250.951397 114.45541 
L 252.869115 114.45541 
L 254.786832 114.45541 
L 256.70455 114.45541 
L 258.622267 114.45541 
L 260.539985 114.45541 
L 262.457702 114.45541 
L 264.37542 114.45541 
L 266.293138 114.45541 
" style="fill:none;stroke:#000000;stroke-linecap:square;stroke-width:1.5;"/>
   </g>
   <g id="patch_3">
    <path d="M 68.96 187.23 
L 68.96 10.8 
" style="fill:none;stroke:#000000;stroke-linecap:square;stroke-linejoin:miter;stroke-width:0.8;"/>
   </g>
   <g id="patch_4">
    <path d="M 275.689954 187.23 
L 275.689954 10.8 
" style="fill:none;stroke:#000000;stroke-linecap:square;stroke-linejoin:miter;stroke-width:0.8;"/>
   </g>
   <g id="patch_5">
    <path d="M 68.96 187.23 
L 275.689954 187.23 
" style="fill:none;stroke:#000000;stroke-linecap:square;stroke-linejoin:miter;stroke-width:0.8;"/>
   </g>
   <g id="patch_6">
    <path d="M 68.96 10.8 
L 275.689954 10.8 
" style="fill:none;stroke:#000000;stroke-linecap:square;stroke-linejoin:miter;stroke-width:0.8;"/>
   </g>
  </g>
  <g id="axes_2">
   <g id="patch_7">
    <path d="M 68.96 246.04 
L 275.689954 246.04 
L 275.689954 187.23 
L 68.96 187.23 
z
" style="fill:#ffffff;"/>
   </g>
   <g id="matplotlib.axis_3">
    <g id="xtick_5">
     <g id="line2d_11">
      <g>
       <use style="stroke:#000000;stroke-width:0.8;" x="76.439099" xlink:href="#m3c9a2ccc4d" y="246.04"/>
      </g>
     </g>
     <g id="text_7">
      <!-- 0 -->
      <g transform="translate(73.257849 260.638438)scale(0.1 -0.1)">
       <use xlink:href="#DejaVuSans-48"/>
      </g>
     </g>
    </g>
    <g id="xtick_6">
     <g id="line2d_12">
      <g>
       <use style="stroke:#000000;stroke-width:0.8;" x="140.363017" xlink:href="#m3c9a2ccc4d" y="246.04"/>
      </g>
     </g>
     <g id="text_8">
      <!-- 100 -->
      <g transform="translate(130.819267 260.638438)scale(0.1 -0.1)">
       <defs>
        <path d="M 12.40625 8.296875 
L 28.515625 8.296875 
L 28.515625 63.921875 
L 10.984375 60.40625 
L 10.984375 69.390625 
L 28.421875 72.90625 
L 38.28125 72.90625 
L 38.28125 8.296875 
L 54.390625 8.296875 
L 54.390625 0 
L 12.40625 0 
z
" id="DejaVuSans-49"/>
       </defs>
       <use xlink:href="#DejaVuSans-49"/>
       <use x="63.623047" xlink:href="#DejaVuSans-48"/>
       <use x="127.246094" xlink:href="#DejaVuSans-48"/>
      </g>
     </g>
    </g>
    <g id="xtick_7">
     <g id="line2d_13">
      <g>
       <use style="stroke:#000000;stroke-width:0.8;" x="204.286936" xlink:href="#m3c9a2ccc4d" y="246.04"/>
      </g>
     </g>
     <g id="text_9">
      <!-- 200 -->
      <g transform="translate(194.743186 260.638438)scale(0.1 -0.1)">
       <use xlink:href="#DejaVuSans-50"/>
       <use x="63.623047" xlink:href="#DejaVuSans-48"/>
       <use x="127.246094" xlink:href="#DejaVuSans-48"/>
      </g>
     </g>
    </g>
    <g id="xtick_8">
     <g id="line2d_14">
      <g>
       <use style="stroke:#000000;stroke-width:0.8;" x="268.210855" xlink:href="#m3c9a2ccc4d" y="246.04"/>
      </g>
     </g>
     <g id="text_10">
      <!-- 300 -->
      <g transform="translate(258.667105 260.638438)scale(0.1 -0.1)">
       <use xlink:href="#DejaVuSans-51"/>
       <use x="63.623047" xlink:href="#DejaVuSans-48"/>
       <use x="127.246094" xlink:href="#DejaVuSans-48"/>
      </g>
     </g>
    </g>
    <g id="text_11">
     <!-- $l$ -->
     <g transform="translate(170.824977 274.316562)scale(0.1 -0.1)">
      <defs>
       <path d="M 4.390625 8.109375 
Q 4.390625 8.40625 4.46875 8.984375 
Q 4.546875 9.578125 4.609375 10.125 
Q 4.6875 10.6875 4.6875 10.984375 
L 17.09375 60.5 
Q 17.484375 62.203125 17.578125 63.1875 
Q 17.578125 64.796875 11.078125 64.796875 
Q 10.109375 64.796875 10.109375 66.109375 
Q 10.15625 66.359375 10.328125 66.984375 
Q 10.5 67.625 10.765625 67.96875 
Q 11.03125 68.3125 11.53125 68.3125 
L 25 69.390625 
Q 26.21875 69.390625 26.21875 68.109375 
L 11.8125 10.59375 
Q 11.078125 8.984375 11.078125 5.8125 
Q 11.078125 1.515625 14.015625 1.515625 
Q 17.09375 1.515625 18.625 5.34375 
Q 20.171875 9.1875 21.390625 14.703125 
Q 21.578125 15.28125 22.21875 15.28125 
L 23.390625 15.28125 
Q 23.78125 15.28125 24.046875 14.96875 
Q 24.3125 14.65625 24.3125 14.3125 
Q 23.140625 9.46875 22.1875 6.65625 
Q 21.234375 3.859375 19.140625 1.359375 
Q 17.046875 -1.125 13.8125 -1.125 
Q 9.8125 -1.125 7.09375 1.453125 
Q 4.390625 4.046875 4.390625 8.109375 
z
" id="Cmmi10-108"/>
      </defs>
      <use transform="translate(0 0.609375)" xlink:href="#Cmmi10-108"/>
     </g>
    </g>
   </g>
   <g id="matplotlib.axis_4">
    <g id="ytick_6">
     <g id="line2d_15">
      <g>
       <use style="stroke:#000000;stroke-width:0.8;" x="68.96" xlink:href="#mafe2155421" y="242.084916"/>
      </g>
     </g>
     <g id="text_12">
      <!-- −0.025 -->
      <g transform="translate(24.952188 245.884135)scale(0.1 -0.1)">
       <defs>
        <path d="M 10.59375 35.5 
L 73.1875 35.5 
L 73.1875 27.203125 
L 10.59375 27.203125 
z
" id="DejaVuSans-8722"/>
        <path d="M 10.796875 72.90625 
L 49.515625 72.90625 
L 49.515625 64.59375 
L 19.828125 64.59375 
L 19.828125 46.734375 
Q 21.96875 47.46875 24.109375 47.828125 
Q 26.265625 48.1875 28.421875 48.1875 
Q 40.625 48.1875 47.75 41.5 
Q 54.890625 34.8125 54.890625 23.390625 
Q 54.890625 11.625 47.5625 5.09375 
Q 40.234375 -1.421875 26.90625 -1.421875 
Q 22.3125 -1.421875 17.546875 -0.640625 
Q 12.796875 0.140625 7.71875 1.703125 
L 7.71875 11.625 
Q 12.109375 9.234375 16.796875 8.0625 
Q 21.484375 6.890625 26.703125 6.890625 
Q 35.15625 6.890625 40.078125 11.328125 
Q 45.015625 15.765625 45.015625 23.390625 
Q 45.015625 31 40.078125 35.4375 
Q 35.15625 39.890625 26.703125 39.890625 
Q 22.75 39.890625 18.8125 39.015625 
Q 14.890625 38.140625 10.796875 36.28125 
z
" id="DejaVuSans-53"/>
       </defs>
       <use xlink:href="#DejaVuSans-8722"/>
       <use x="83.789062" xlink:href="#DejaVuSans-48"/>
       <use x="147.412109" xlink:href="#DejaVuSans-46"/>
       <use x="179.199219" xlink:href="#DejaVuSans-48"/>
       <use x="242.822266" xlink:href="#DejaVuSans-50"/>
       <use x="306.445312" xlink:href="#DejaVuSans-53"/>
      </g>
     </g>
    </g>
    <g id="ytick_7">
     <g id="line2d_16">
      <g>
       <use style="stroke:#000000;stroke-width:0.8;" x="68.96" xlink:href="#mafe2155421" y="207.997829"/>
      </g>
     </g>
     <g id="text_13">
      <!-- 0.000 -->
      <g transform="translate(33.331875 211.797048)scale(0.1 -0.1)">
       <use xlink:href="#DejaVuSans-48"/>
       <use x="63.623047" xlink:href="#DejaVuSans-46"/>
       <use x="95.410156" xlink:href="#DejaVuSans-48"/>
       <use x="159.033203" xlink:href="#DejaVuSans-48"/>
       <use x="222.65625" xlink:href="#DejaVuSans-48"/>
      </g>
     </g>
    </g>
    <g id="text_14">
     <!-- Residual -->
     <g transform="translate(18.8725 237.750625)rotate(-90)scale(0.1 -0.1)">
      <defs>
       <path d="M 44.390625 34.1875 
Q 47.5625 33.109375 50.5625 29.59375 
Q 53.5625 26.078125 56.59375 19.921875 
L 66.609375 0 
L 56 0 
L 46.6875 18.703125 
Q 43.0625 26.03125 39.671875 28.421875 
Q 36.28125 30.8125 30.421875 30.8125 
L 19.671875 30.8125 
L 19.671875 0 
L 9.8125 0 
L 9.8125 72.90625 
L 32.078125 72.90625 
Q 44.578125 72.90625 50.734375 67.671875 
Q 56.890625 62.453125 56.890625 51.90625 
Q 56.890625 45.015625 53.6875 40.46875 
Q 50.484375 35.9375 44.390625 34.1875 
z
M 19.671875 64.796875 
L 19.671875 38.921875 
L 32.078125 38.921875 
Q 39.203125 38.921875 42.84375 42.21875 
Q 46.484375 45.515625 46.484375 51.90625 
Q 46.484375 58.296875 42.84375 61.546875 
Q 39.203125 64.796875 32.078125 64.796875 
z
" id="DejaVuSans-82"/>
       <path d="M 56.203125 29.59375 
L 56.203125 25.203125 
L 14.890625 25.203125 
Q 15.484375 15.921875 20.484375 11.0625 
Q 25.484375 6.203125 34.421875 6.203125 
Q 39.59375 6.203125 44.453125 7.46875 
Q 49.3125 8.734375 54.109375 11.28125 
L 54.109375 2.78125 
Q 49.265625 0.734375 44.1875 -0.34375 
Q 39.109375 -1.421875 33.890625 -1.421875 
Q 20.796875 -1.421875 13.15625 6.1875 
Q 5.515625 13.8125 5.515625 26.8125 
Q 5.515625 40.234375 12.765625 48.109375 
Q 20.015625 56 32.328125 56 
Q 43.359375 56 49.78125 48.890625 
Q 56.203125 41.796875 56.203125 29.59375 
z
M 47.21875 32.234375 
Q 47.125 39.59375 43.09375 43.984375 
Q 39.0625 48.390625 32.421875 48.390625 
Q 24.90625 48.390625 20.390625 44.140625 
Q 15.875 39.890625 15.1875 32.171875 
z
" id="DejaVuSans-101"/>
       <path d="M 44.28125 53.078125 
L 44.28125 44.578125 
Q 40.484375 46.53125 36.375 47.5 
Q 32.28125 48.484375 27.875 48.484375 
Q 21.1875 48.484375 17.84375 46.4375 
Q 14.5 44.390625 14.5 40.28125 
Q 14.5 37.15625 16.890625 35.375 
Q 19.28125 33.59375 26.515625 31.984375 
L 29.59375 31.296875 
Q 39.15625 29.25 43.1875 25.515625 
Q 47.21875 21.78125 47.21875 15.09375 
Q 47.21875 7.46875 41.1875 3.015625 
Q 35.15625 -1.421875 24.609375 -1.421875 
Q 20.21875 -1.421875 15.453125 -0.5625 
Q 10.6875 0.296875 5.421875 2 
L 5.421875 11.28125 
Q 10.40625 8.6875 15.234375 7.390625 
Q 20.0625 6.109375 24.8125 6.109375 
Q 31.15625 6.109375 34.5625 8.28125 
Q 37.984375 10.453125 37.984375 14.40625 
Q 37.984375 18.0625 35.515625 20.015625 
Q 33.0625 21.96875 24.703125 23.78125 
L 21.578125 24.515625 
Q 13.234375 26.265625 9.515625 29.90625 
Q 5.8125 33.546875 5.8125 39.890625 
Q 5.8125 47.609375 11.28125 51.796875 
Q 16.75 56 26.8125 56 
Q 31.78125 56 36.171875 55.265625 
Q 40.578125 54.546875 44.28125 53.078125 
z
" id="DejaVuSans-115"/>
       <path d="M 9.421875 54.6875 
L 18.40625 54.6875 
L 18.40625 0 
L 9.421875 0 
z
M 9.421875 75.984375 
L 18.40625 75.984375 
L 18.40625 64.59375 
L 9.421875 64.59375 
z
" id="DejaVuSans-105"/>
       <path d="M 45.40625 46.390625 
L 45.40625 75.984375 
L 54.390625 75.984375 
L 54.390625 0 
L 45.40625 0 
L 45.40625 8.203125 
Q 42.578125 3.328125 38.25 0.953125 
Q 33.9375 -1.421875 27.875 -1.421875 
Q 17.96875 -1.421875 11.734375 6.484375 
Q 5.515625 14.40625 5.515625 27.296875 
Q 5.515625 40.1875 11.734375 48.09375 
Q 17.96875 56 27.875 56 
Q 33.9375 56 38.25 53.625 
Q 42.578125 51.265625 45.40625 46.390625 
z
M 14.796875 27.296875 
Q 14.796875 17.390625 18.875 11.75 
Q 22.953125 6.109375 30.078125 6.109375 
Q 37.203125 6.109375 41.296875 11.75 
Q 45.40625 17.390625 45.40625 27.296875 
Q 45.40625 37.203125 41.296875 42.84375 
Q 37.203125 48.484375 30.078125 48.484375 
Q 22.953125 48.484375 18.875 42.84375 
Q 14.796875 37.203125 14.796875 27.296875 
z
" id="DejaVuSans-100"/>
       <path d="M 8.5 21.578125 
L 8.5 54.6875 
L 17.484375 54.6875 
L 17.484375 21.921875 
Q 17.484375 14.15625 20.5 10.265625 
Q 23.53125 6.390625 29.59375 6.390625 
Q 36.859375 6.390625 41.078125 11.03125 
Q 45.3125 15.671875 45.3125 23.6875 
L 45.3125 54.6875 
L 54.296875 54.6875 
L 54.296875 0 
L 45.3125 0 
L 45.3125 8.40625 
Q 42.046875 3.421875 37.71875 1 
Q 33.40625 -1.421875 27.6875 -1.421875 
Q 18.265625 -1.421875 13.375 4.4375 
Q 8.5 10.296875 8.5 21.578125 
z
M 31.109375 56 
z
" id="DejaVuSans-117"/>
       <path d="M 34.28125 27.484375 
Q 23.390625 27.484375 19.1875 25 
Q 14.984375 22.515625 14.984375 16.5 
Q 14.984375 11.71875 18.140625 8.90625 
Q 21.296875 6.109375 26.703125 6.109375 
Q 34.1875 6.109375 38.703125 11.40625 
Q 43.21875 16.703125 43.21875 25.484375 
L 43.21875 27.484375 
z
M 52.203125 31.203125 
L 52.203125 0 
L 43.21875 0 
L 43.21875 8.296875 
Q 40.140625 3.328125 35.546875 0.953125 
Q 30.953125 -1.421875 24.3125 -1.421875 
Q 15.921875 -1.421875 10.953125 3.296875 
Q 6 8.015625 6 15.921875 
Q 6 25.140625 12.171875 29.828125 
Q 18.359375 34.515625 30.609375 34.515625 
L 43.21875 34.515625 
L 43.21875 35.40625 
Q 43.21875 41.609375 39.140625 45 
Q 35.0625 48.390625 27.6875 48.390625 
Q 23 48.390625 18.546875 47.265625 
Q 14.109375 46.140625 10.015625 43.890625 
L 10.015625 52.203125 
Q 14.9375 54.109375 19.578125 55.046875 
Q 24.21875 56 28.609375 56 
Q 40.484375 56 46.34375 49.84375 
Q 52.203125 43.703125 52.203125 31.203125 
z
" id="DejaVuSans-97"/>
       <path d="M 9.421875 75.984375 
L 18.40625 75.984375 
L 18.40625 0 
L 9.421875 0 
z
" id="DejaVuSans-108"/>
      </defs>
      <use xlink:href="#DejaVuSans-82"/>
      <use x="64.982422" xlink:href="#DejaVuSans-101"/>
      <use x="126.505859" xlink:href="#DejaVuSans-115"/>
      <use x="178.605469" xlink:href="#DejaVuSans-105"/>
      <use x="206.388672" xlink:href="#DejaVuSans-100"/>
      <use x="269.865234" xlink:href="#DejaVuSans-117"/>
      <use x="333.244141" xlink:href="#DejaVuSans-97"/>
      <use x="394.523438" xlink:href="#DejaVuSans-108"/>
     </g>
    </g>
   </g>
   <g id="LineCollection_1">
    <path clip-path="url(#pa74fd48dec)" d="M 78.356816 207.997829 
L 78.356816 243.366818 
" style="fill:none;stroke:#000000;stroke-width:1.5;"/>
    <path clip-path="url(#pa74fd48dec)" d="M 80.274534 207.997829 
L 80.274534 231.871621 
" style="fill:none;stroke:#000000;stroke-width:1.5;"/>
    <path clip-path="url(#pa74fd48dec)" d="M 82.192251 207.997829 
L 82.192251 226.221179 
" style="fill:none;stroke:#000000;stroke-width:1.5;"/>
    <path clip-path="url(#pa74fd48dec)" d="M 84.109969 207.997829 
L 84.109969 222.148937 
" style="fill:none;stroke:#000000;stroke-width:1.5;"/>
    <path clip-path="url(#pa74fd48dec)" d="M 86.027686 207.997829 
L 86.027686 221.628555 
" style="fill:none;stroke:#000000;stroke-width:1.5;"/>
    <path clip-path="url(#pa74fd48dec)" d="M 87.945404 207.997829 
L 87.945404 223.678898 
" style="fill:none;stroke:#000000;stroke-width:1.5;"/>
    <path clip-path="url(#pa74fd48dec)" d="M 89.863121 207.997829 
L 89.863121 215.02535 
" style="fill:none;stroke:#000000;stroke-width:1.5;"/>
    <path clip-path="url(#pa74fd48dec)" d="M 91.780839 207.997829 
L 91.780839 215.495247 
" style="fill:none;stroke:#000000;stroke-width:1.5;"/>
    <path clip-path="url(#pa74fd48dec)" d="M 93.698557 207.997829 
L 93.698557 211.051562 
" style="fill:none;stroke:#000000;stroke-width:1.5;"/>
    <path clip-path="url(#pa74fd48dec)" d="M 95.616274 207.997829 
L 95.616274 223.182197 
" style="fill:none;stroke:#000000;stroke-width:1.5;"/>
    <path clip-path="url(#pa74fd48dec)" d="M 97.533992 207.997829 
L 97.533992 214.402463 
" style="fill:none;stroke:#000000;stroke-width:1.5;"/>
    <path clip-path="url(#pa74fd48dec)" d="M 99.451709 207.997829 
L 99.451709 216.281695 
" style="fill:none;stroke:#000000;stroke-width:1.5;"/>
    <path clip-path="url(#pa74fd48dec)" d="M 101.369427 207.997829 
L 101.369427 207.120057 
" style="fill:none;stroke:#000000;stroke-width:1.5;"/>
    <path clip-path="url(#pa74fd48dec)" d="M 103.287144 207.997829 
L 103.287144 210.578109 
" style="fill:none;stroke:#000000;stroke-width:1.5;"/>
    <path clip-path="url(#pa74fd48dec)" d="M 105.204862 207.997829 
L 105.204862 208.410462 
" style="fill:none;stroke:#000000;stroke-width:1.5;"/>
    <path clip-path="url(#pa74fd48dec)" d="M 107.12258 207.997829 
L 107.12258 206.384149 
" style="fill:none;stroke:#000000;stroke-width:1.5;"/>
    <path clip-path="url(#pa74fd48dec)" d="M 109.040297 207.997829 
L 109.040297 215.749072 
" style="fill:none;stroke:#000000;stroke-width:1.5;"/>
    <path clip-path="url(#pa74fd48dec)" d="M 110.958015 207.997829 
L 110.958015 215.878882 
" style="fill:none;stroke:#000000;stroke-width:1.5;"/>
    <path clip-path="url(#pa74fd48dec)" d="M 112.875732 207.997829 
L 112.875732 210.590616 
" style="fill:none;stroke:#000000;stroke-width:1.5;"/>
    <path clip-path="url(#pa74fd48dec)" d="M 114.79345 207.997829 
L 114.79345 219.136789 
" style="fill:none;stroke:#000000;stroke-width:1.5;"/>
    <path clip-path="url(#pa74fd48dec)" d="M 116.711167 207.997829 
L 116.711167 210.089837 
" style="fill:none;stroke:#000000;stroke-width:1.5;"/>
    <path clip-path="url(#pa74fd48dec)" d="M 118.628885 207.997829 
L 118.628885 208.54099 
" style="fill:none;stroke:#000000;stroke-width:1.5;"/>
    <path clip-path="url(#pa74fd48dec)" d="M 120.546603 207.997829 
L 120.546603 209.045508 
" style="fill:none;stroke:#000000;stroke-width:1.5;"/>
    <path clip-path="url(#pa74fd48dec)" d="M 122.46432 207.997829 
L 122.46432 208.988499 
" style="fill:none;stroke:#000000;stroke-width:1.5;"/>
    <path clip-path="url(#pa74fd48dec)" d="M 124.382038 207.997829 
L 124.382038 224.554553 
" style="fill:none;stroke:#000000;stroke-width:1.5;"/>
    <path clip-path="url(#pa74fd48dec)" d="M 126.299755 207.997829 
L 126.299755 200.629932 
" style="fill:none;stroke:#000000;stroke-width:1.5;"/>
    <path clip-path="url(#pa74fd48dec)" d="M 128.217473 207.997829 
L 128.217473 207.245149 
" style="fill:none;stroke:#000000;stroke-width:1.5;"/>
    <path clip-path="url(#pa74fd48dec)" d="M 130.13519 207.997829 
L 130.13519 204.015581 
" style="fill:none;stroke:#000000;stroke-width:1.5;"/>
    <path clip-path="url(#pa74fd48dec)" d="M 132.052908 207.997829 
L 132.052908 203.321326 
" style="fill:none;stroke:#000000;stroke-width:1.5;"/>
    <path clip-path="url(#pa74fd48dec)" d="M 133.970625 207.997829 
L 133.970625 204.67559 
" style="fill:none;stroke:#000000;stroke-width:1.5;"/>
    <path clip-path="url(#pa74fd48dec)" d="M 135.888343 207.997829 
L 135.888343 210.905346 
" style="fill:none;stroke:#000000;stroke-width:1.5;"/>
    <path clip-path="url(#pa74fd48dec)" d="M 137.806061 207.997829 
L 137.806061 196.869158 
" style="fill:none;stroke:#000000;stroke-width:1.5;"/>
    <path clip-path="url(#pa74fd48dec)" d="M 139.723778 207.997829 
L 139.723778 208.216136 
" style="fill:none;stroke:#000000;stroke-width:1.5;"/>
    <path clip-path="url(#pa74fd48dec)" d="M 141.641496 207.997829 
L 141.641496 206.578149 
" style="fill:none;stroke:#000000;stroke-width:1.5;"/>
    <path clip-path="url(#pa74fd48dec)" d="M 143.559213 207.997829 
L 143.559213 210.595063 
" style="fill:none;stroke:#000000;stroke-width:1.5;"/>
    <path clip-path="url(#pa74fd48dec)" d="M 145.476931 207.997829 
L 145.476931 201.791032 
" style="fill:none;stroke:#000000;stroke-width:1.5;"/>
    <path clip-path="url(#pa74fd48dec)" d="M 147.394648 207.997829 
L 147.394648 211.371817 
" style="fill:none;stroke:#000000;stroke-width:1.5;"/>
    <path clip-path="url(#pa74fd48dec)" d="M 149.312366 207.997829 
L 149.312366 209.835436 
" style="fill:none;stroke:#000000;stroke-width:1.5;"/>
    <path clip-path="url(#pa74fd48dec)" d="M 151.230084 207.997829 
L 151.230084 196.050329 
" style="fill:none;stroke:#000000;stroke-width:1.5;"/>
    <path clip-path="url(#pa74fd48dec)" d="M 153.147801 207.997829 
L 153.147801 203.038997 
" style="fill:none;stroke:#000000;stroke-width:1.5;"/>
    <path clip-path="url(#pa74fd48dec)" d="M 155.065519 207.997829 
L 155.065519 206.641891 
" style="fill:none;stroke:#000000;stroke-width:1.5;"/>
    <path clip-path="url(#pa74fd48dec)" d="M 156.983236 207.997829 
L 156.983236 203.867894 
" style="fill:none;stroke:#000000;stroke-width:1.5;"/>
    <path clip-path="url(#pa74fd48dec)" d="M 158.900954 207.997829 
L 158.900954 204.629112 
" style="fill:none;stroke:#000000;stroke-width:1.5;"/>
    <path clip-path="url(#pa74fd48dec)" d="M 160.818671 207.997829 
L 160.818671 210.106714 
" style="fill:none;stroke:#000000;stroke-width:1.5;"/>
    <path clip-path="url(#pa74fd48dec)" d="M 162.736389 207.997829 
L 162.736389 210.329317 
" style="fill:none;stroke:#000000;stroke-width:1.5;"/>
    <path clip-path="url(#pa74fd48dec)" d="M 164.654107 207.997829 
L 164.654107 197.825639 
" style="fill:none;stroke:#000000;stroke-width:1.5;"/>
    <path clip-path="url(#pa74fd48dec)" d="M 166.571824 207.997829 
L 166.571824 206.37873 
" style="fill:none;stroke:#000000;stroke-width:1.5;"/>
    <path clip-path="url(#pa74fd48dec)" d="M 168.489542 207.997829 
L 168.489542 206.682603 
" style="fill:none;stroke:#000000;stroke-width:1.5;"/>
    <path clip-path="url(#pa74fd48dec)" d="M 170.407259 207.997829 
L 170.407259 198.039435 
" style="fill:none;stroke:#000000;stroke-width:1.5;"/>
    <path clip-path="url(#pa74fd48dec)" d="M 172.324977 207.997829 
L 172.324977 209.643623 
" style="fill:none;stroke:#000000;stroke-width:1.5;"/>
    <path clip-path="url(#pa74fd48dec)" d="M 174.242694 207.997829 
L 174.242694 207.782137 
" style="fill:none;stroke:#000000;stroke-width:1.5;"/>
    <path clip-path="url(#pa74fd48dec)" d="M 176.160412 207.997829 
L 176.160412 214.817591 
" style="fill:none;stroke:#000000;stroke-width:1.5;"/>
    <path clip-path="url(#pa74fd48dec)" d="M 178.07813 207.997829 
L 178.07813 210.714869 
" style="fill:none;stroke:#000000;stroke-width:1.5;"/>
    <path clip-path="url(#pa74fd48dec)" d="M 179.995847 207.997829 
L 179.995847 206.339244 
" style="fill:none;stroke:#000000;stroke-width:1.5;"/>
    <path clip-path="url(#pa74fd48dec)" d="M 181.913565 207.997829 
L 181.913565 201.319095 
" style="fill:none;stroke:#000000;stroke-width:1.5;"/>
    <path clip-path="url(#pa74fd48dec)" d="M 183.831282 207.997829 
L 183.831282 196.450801 
" style="fill:none;stroke:#000000;stroke-width:1.5;"/>
    <path clip-path="url(#pa74fd48dec)" d="M 185.749 207.997829 
L 185.749 211.829759 
" style="fill:none;stroke:#000000;stroke-width:1.5;"/>
    <path clip-path="url(#pa74fd48dec)" d="M 187.666717 207.997829 
L 187.666717 205.772461 
" style="fill:none;stroke:#000000;stroke-width:1.5;"/>
    <path clip-path="url(#pa74fd48dec)" d="M 189.584435 207.997829 
L 189.584435 207.426036 
" style="fill:none;stroke:#000000;stroke-width:1.5;"/>
    <path clip-path="url(#pa74fd48dec)" d="M 191.502152 207.997829 
L 191.502152 204.949288 
" style="fill:none;stroke:#000000;stroke-width:1.5;"/>
    <path clip-path="url(#pa74fd48dec)" d="M 193.41987 207.997829 
L 193.41987 209.103273 
" style="fill:none;stroke:#000000;stroke-width:1.5;"/>
    <path clip-path="url(#pa74fd48dec)" d="M 195.337588 207.997829 
L 195.337588 210.459343 
" style="fill:none;stroke:#000000;stroke-width:1.5;"/>
    <path clip-path="url(#pa74fd48dec)" d="M 197.255305 207.997829 
L 197.255305 210.598927 
" style="fill:none;stroke:#000000;stroke-width:1.5;"/>
    <path clip-path="url(#pa74fd48dec)" d="M 199.173023 207.997829 
L 199.173023 209.95613 
" style="fill:none;stroke:#000000;stroke-width:1.5;"/>
    <path clip-path="url(#pa74fd48dec)" d="M 201.09074 207.997829 
L 201.09074 207.29321 
" style="fill:none;stroke:#000000;stroke-width:1.5;"/>
    <path clip-path="url(#pa74fd48dec)" d="M 203.008458 207.997829 
L 203.008458 198.491846 
" style="fill:none;stroke:#000000;stroke-width:1.5;"/>
    <path clip-path="url(#pa74fd48dec)" d="M 204.926175 207.997829 
L 204.926175 210.165116 
" style="fill:none;stroke:#000000;stroke-width:1.5;"/>
    <path clip-path="url(#pa74fd48dec)" d="M 206.843893 207.997829 
L 206.843893 207.710902 
" style="fill:none;stroke:#000000;stroke-width:1.5;"/>
    <path clip-path="url(#pa74fd48dec)" d="M 208.761611 207.997829 
L 208.761611 209.216177 
" style="fill:none;stroke:#000000;stroke-width:1.5;"/>
    <path clip-path="url(#pa74fd48dec)" d="M 210.679328 207.997829 
L 210.679328 209.021201 
" style="fill:none;stroke:#000000;stroke-width:1.5;"/>
    <path clip-path="url(#pa74fd48dec)" d="M 212.597046 207.997829 
L 212.597046 203.526088 
" style="fill:none;stroke:#000000;stroke-width:1.5;"/>
    <path clip-path="url(#pa74fd48dec)" d="M 214.514763 207.997829 
L 214.514763 214.428563 
" style="fill:none;stroke:#000000;stroke-width:1.5;"/>
    <path clip-path="url(#pa74fd48dec)" d="M 216.432481 207.997829 
L 216.432481 207.743836 
" style="fill:none;stroke:#000000;stroke-width:1.5;"/>
    <path clip-path="url(#pa74fd48dec)" d="M 218.350198 207.997829 
L 218.350198 206.583092 
" style="fill:none;stroke:#000000;stroke-width:1.5;"/>
    <path clip-path="url(#pa74fd48dec)" d="M 220.267916 207.997829 
L 220.267916 208.173151 
" style="fill:none;stroke:#000000;stroke-width:1.5;"/>
    <path clip-path="url(#pa74fd48dec)" d="M 222.185634 207.997829 
L 222.185634 196.292182 
" style="fill:none;stroke:#000000;stroke-width:1.5;"/>
    <path clip-path="url(#pa74fd48dec)" d="M 224.103351 207.997829 
L 224.103351 205.572288 
" style="fill:none;stroke:#000000;stroke-width:1.5;"/>
    <path clip-path="url(#pa74fd48dec)" d="M 226.021069 207.997829 
L 226.021069 202.650998 
" style="fill:none;stroke:#000000;stroke-width:1.5;"/>
    <path clip-path="url(#pa74fd48dec)" d="M 227.938786 207.997829 
L 227.938786 189.903182 
" style="fill:none;stroke:#000000;stroke-width:1.5;"/>
    <path clip-path="url(#pa74fd48dec)" d="M 229.856504 207.997829 
L 229.856504 197.805487 
" style="fill:none;stroke:#000000;stroke-width:1.5;"/>
    <path clip-path="url(#pa74fd48dec)" d="M 231.774221 207.997829 
L 231.774221 202.782622 
" style="fill:none;stroke:#000000;stroke-width:1.5;"/>
    <path clip-path="url(#pa74fd48dec)" d="M 233.691939 207.997829 
L 233.691939 210.367257 
" style="fill:none;stroke:#000000;stroke-width:1.5;"/>
    <path clip-path="url(#pa74fd48dec)" d="M 235.609656 207.997829 
L 235.609656 203.040013 
" style="fill:none;stroke:#000000;stroke-width:1.5;"/>
    <path clip-path="url(#pa74fd48dec)" d="M 237.527374 207.997829 
L 237.527374 206.748253 
" style="fill:none;stroke:#000000;stroke-width:1.5;"/>
    <path clip-path="url(#pa74fd48dec)" d="M 239.445092 207.997829 
L 239.445092 196.980517 
" style="fill:none;stroke:#000000;stroke-width:1.5;"/>
    <path clip-path="url(#pa74fd48dec)" d="M 241.362809 207.997829 
L 241.362809 199.309718 
" style="fill:none;stroke:#000000;stroke-width:1.5;"/>
    <path clip-path="url(#pa74fd48dec)" d="M 243.280527 207.997829 
L 243.280527 193.628081 
" style="fill:none;stroke:#000000;stroke-width:1.5;"/>
    <path clip-path="url(#pa74fd48dec)" d="M 245.198244 207.997829 
L 245.198244 201.174652 
" style="fill:none;stroke:#000000;stroke-width:1.5;"/>
    <path clip-path="url(#pa74fd48dec)" d="M 247.115962 207.997829 
L 247.115962 200.083765 
" style="fill:none;stroke:#000000;stroke-width:1.5;"/>
    <path clip-path="url(#pa74fd48dec)" d="M 249.033679 207.997829 
L 249.033679 205.348129 
" style="fill:none;stroke:#000000;stroke-width:1.5;"/>
    <path clip-path="url(#pa74fd48dec)" d="M 250.951397 207.997829 
L 250.951397 207.295025 
" style="fill:none;stroke:#000000;stroke-width:1.5;"/>
    <path clip-path="url(#pa74fd48dec)" d="M 252.869115 207.997829 
L 252.869115 199.725858 
" style="fill:none;stroke:#000000;stroke-width:1.5;"/>
    <path clip-path="url(#pa74fd48dec)" d="M 254.786832 207.997829 
L 254.786832 208.193608 
" style="fill:none;stroke:#000000;stroke-width:1.5;"/>
    <path clip-path="url(#pa74fd48dec)" d="M 256.70455 207.997829 
L 256.70455 199.507637 
" style="fill:none;stroke:#000000;stroke-width:1.5;"/>
    <path clip-path="url(#pa74fd48dec)" d="M 258.622267 207.997829 
L 258.622267 203.661144 
" style="fill:none;stroke:#000000;stroke-width:1.5;"/>
    <path clip-path="url(#pa74fd48dec)" d="M 260.539985 207.997829 
L 260.539985 214.548876 
" style="fill:none;stroke:#000000;stroke-width:1.5;"/>
    <path clip-path="url(#pa74fd48dec)" d="M 262.457702 207.997829 
L 262.457702 204.856382 
" style="fill:none;stroke:#000000;stroke-width:1.5;"/>
    <path clip-path="url(#pa74fd48dec)" d="M 264.37542 207.997829 
L 264.37542 205.701553 
" style="fill:none;stroke:#000000;stroke-width:1.5;"/>
    <path clip-path="url(#pa74fd48dec)" d="M 266.293138 207.997829 
L 266.293138 198.029677 
" style="fill:none;stroke:#000000;stroke-width:1.5;"/>
   </g>
   <g id="line2d_17">
    <defs>
     <path d="M 0 2 
C 0.530406 2 1.03916 1.789267 1.414214 1.414214 
C 1.789267 1.03916 2 0.530406 2 0 
C 2 -0.530406 1.789267 -1.03916 1.414214 -1.414214 
C 1.03916 -1.789267 0.530406 -2 0 -2 
C -0.530406 -2 -1.03916 -1.789267 -1.414214 -1.414214 
C -1.789267 -1.03916 -2 -0.530406 -2 0 
C -2 0.530406 -1.789267 1.03916 -1.414214 1.414214 
C -1.03916 1.789267 -0.530406 2 0 2 
z
" id="me48aeba5e8" style="stroke:#000000;"/>
    </defs>
    <g clip-path="url(#pa74fd48dec)">
     <use style="stroke:#000000;" x="78.356816" xlink:href="#me48aeba5e8" y="243.366818"/>
     <use style="stroke:#000000;" x="80.274534" xlink:href="#me48aeba5e8" y="231.871621"/>
     <use style="stroke:#000000;" x="82.192251" xlink:href="#me48aeba5e8" y="226.221179"/>
     <use style="stroke:#000000;" x="84.109969" xlink:href="#me48aeba5e8" y="222.148937"/>
     <use style="stroke:#000000;" x="86.027686" xlink:href="#me48aeba5e8" y="221.628555"/>
     <use style="stroke:#000000;" x="87.945404" xlink:href="#me48aeba5e8" y="223.678898"/>
     <use style="stroke:#000000;" x="89.863121" xlink:href="#me48aeba5e8" y="215.02535"/>
     <use style="stroke:#000000;" x="91.780839" xlink:href="#me48aeba5e8" y="215.495247"/>
     <use style="stroke:#000000;" x="93.698557" xlink:href="#me48aeba5e8" y="211.051562"/>
     <use style="stroke:#000000;" x="95.616274" xlink:href="#me48aeba5e8" y="223.182197"/>
     <use style="stroke:#000000;" x="97.533992" xlink:href="#me48aeba5e8" y="214.402463"/>
     <use style="stroke:#000000;" x="99.451709" xlink:href="#me48aeba5e8" y="216.281695"/>
     <use style="stroke:#000000;" x="101.369427" xlink:href="#me48aeba5e8" y="207.120057"/>
     <use style="stroke:#000000;" x="103.287144" xlink:href="#me48aeba5e8" y="210.578109"/>
     <use style="stroke:#000000;" x="105.204862" xlink:href="#me48aeba5e8" y="208.410462"/>
     <use style="stroke:#000000;" x="107.12258" xlink:href="#me48aeba5e8" y="206.384149"/>
     <use style="stroke:#000000;" x="109.040297" xlink:href="#me48aeba5e8" y="215.749072"/>
     <use style="stroke:#000000;" x="110.958015" xlink:href="#me48aeba5e8" y="215.878882"/>
     <use style="stroke:#000000;" x="112.875732" xlink:href="#me48aeba5e8" y="210.590616"/>
     <use style="stroke:#000000;" x="114.79345" xlink:href="#me48aeba5e8" y="219.136789"/>
     <use style="stroke:#000000;" x="116.711167" xlink:href="#me48aeba5e8" y="210.089837"/>
     <use style="stroke:#000000;" x="118.628885" xlink:href="#me48aeba5e8" y="208.54099"/>
     <use style="stroke:#000000;" x="120.546603" xlink:href="#me48aeba5e8" y="209.045508"/>
     <use style="stroke:#000000;" x="122.46432" xlink:href="#me48aeba5e8" y="208.988499"/>
     <use style="stroke:#000000;" x="124.382038" xlink:href="#me48aeba5e8" y="224.554553"/>
     <use style="stroke:#000000;" x="126.299755" xlink:href="#me48aeba5e8" y="200.629932"/>
     <use style="stroke:#000000;" x="128.217473" xlink:href="#me48aeba5e8" y="207.245149"/>
     <use style="stroke:#000000;" x="130.13519" xlink:href="#me48aeba5e8" y="204.015581"/>
     <use style="stroke:#000000;" x="132.052908" xlink:href="#me48aeba5e8" y="203.321326"/>
     <use style="stroke:#000000;" x="133.970625" xlink:href="#me48aeba5e8" y="204.67559"/>
     <use style="stroke:#000000;" x="135.888343" xlink:href="#me48aeba5e8" y="210.905346"/>
     <use style="stroke:#000000;" x="137.806061" xlink:href="#me48aeba5e8" y="196.869158"/>
     <use style="stroke:#000000;" x="139.723778" xlink:href="#me48aeba5e8" y="208.216136"/>
     <use style="stroke:#000000;" x="141.641496" xlink:href="#me48aeba5e8" y="206.578149"/>
     <use style="stroke:#000000;" x="143.559213" xlink:href="#me48aeba5e8" y="210.595063"/>
     <use style="stroke:#000000;" x="145.476931" xlink:href="#me48aeba5e8" y="201.791032"/>
     <use style="stroke:#000000;" x="147.394648" xlink:href="#me48aeba5e8" y="211.371817"/>
     <use style="stroke:#000000;" x="149.312366" xlink:href="#me48aeba5e8" y="209.835436"/>
     <use style="stroke:#000000;" x="151.230084" xlink:href="#me48aeba5e8" y="196.050329"/>
     <use style="stroke:#000000;" x="153.147801" xlink:href="#me48aeba5e8" y="203.038997"/>
     <use style="stroke:#000000;" x="155.065519" xlink:href="#me48aeba5e8" y="206.641891"/>
     <use style="stroke:#000000;" x="156.983236" xlink:href="#me48aeba5e8" y="203.867894"/>
     <use style="stroke:#000000;" x="158.900954" xlink:href="#me48aeba5e8" y="204.629112"/>
     <use style="stroke:#000000;" x="160.818671" xlink:href="#me48aeba5e8" y="210.106714"/>
     <use style="stroke:#000000;" x="162.736389" xlink:href="#me48aeba5e8" y="210.329317"/>
     <use style="stroke:#000000;" x="164.654107" xlink:href="#me48aeba5e8" y="197.825639"/>
     <use style="stroke:#000000;" x="166.571824" xlink:href="#me48aeba5e8" y="206.37873"/>
     <use style="stroke:#000000;" x="168.489542" xlink:href="#me48aeba5e8" y="206.682603"/>
     <use style="stroke:#000000;" x="170.407259" xlink:href="#me48aeba5e8" y="198.039435"/>
     <use style="stroke:#000000;" x="172.324977" xlink:href="#me48aeba5e8" y="209.643623"/>
     <use style="stroke:#000000;" x="174.242694" xlink:href="#me48aeba5e8" y="207.782137"/>
     <use style="stroke:#000000;" x="176.160412" xlink:href="#me48aeba5e8" y="214.817591"/>
     <use style="stroke:#000000;" x="178.07813" xlink:href="#me48aeba5e8" y="210.714869"/>
     <use style="stroke:#000000;" x="179.995847" xlink:href="#me48aeba5e8" y="206.339244"/>
     <use style="stroke:#000000;" x="181.913565" xlink:href="#me48aeba5e8" y="201.319095"/>
     <use style="stroke:#000000;" x="183.831282" xlink:href="#me48aeba5e8" y="196.450801"/>
     <use style="stroke:#000000;" x="185.749" xlink:href="#me48aeba5e8" y="211.829759"/>
     <use style="stroke:#000000;" x="187.666717" xlink:href="#me48aeba5e8" y="205.772461"/>
     <use style="stroke:#000000;" x="189.584435" xlink:href="#me48aeba5e8" y="207.426036"/>
     <use style="stroke:#000000;" x="191.502152" xlink:href="#me48aeba5e8" y="204.949288"/>
     <use style="stroke:#000000;" x="193.41987" xlink:href="#me48aeba5e8" y="209.103273"/>
     <use style="stroke:#000000;" x="195.337588" xlink:href="#me48aeba5e8" y="210.459343"/>
     <use style="stroke:#000000;" x="197.255305" xlink:href="#me48aeba5e8" y="210.598927"/>
     <use style="stroke:#000000;" x="199.173023" xlink:href="#me48aeba5e8" y="209.95613"/>
     <use style="stroke:#000000;" x="201.09074" xlink:href="#me48aeba5e8" y="207.29321"/>
     <use style="stroke:#000000;" x="203.008458" xlink:href="#me48aeba5e8" y="198.491846"/>
     <use style="stroke:#000000;" x="204.926175" xlink:href="#me48aeba5e8" y="210.165116"/>
     <use style="stroke:#000000;" x="206.843893" xlink:href="#me48aeba5e8" y="207.710902"/>
     <use style="stroke:#000000;" x="208.761611" xlink:href="#me48aeba5e8" y="209.216177"/>
     <use style="stroke:#000000;" x="210.679328" xlink:href="#me48aeba5e8" y="209.021201"/>
     <use style="stroke:#000000;" x="212.597046" xlink:href="#me48aeba5e8" y="203.526088"/>
     <use style="stroke:#000000;" x="214.514763" xlink:href="#me48aeba5e8" y="214.428563"/>
     <use style="stroke:#000000;" x="216.432481" xlink:href="#me48aeba5e8" y="207.743836"/>
     <use style="stroke:#000000;" x="218.350198" xlink:href="#me48aeba5e8" y="206.583092"/>
     <use style="stroke:#000000;" x="220.267916" xlink:href="#me48aeba5e8" y="208.173151"/>
     <use style="stroke:#000000;" x="222.185634" xlink:href="#me48aeba5e8" y="196.292182"/>
     <use style="stroke:#000000;" x="224.103351" xlink:href="#me48aeba5e8" y="205.572288"/>
     <use style="stroke:#000000;" x="226.021069" xlink:href="#me48aeba5e8" y="202.650998"/>
     <use style="stroke:#000000;" x="227.938786" xlink:href="#me48aeba5e8" y="189.903182"/>
     <use style="stroke:#000000;" x="229.856504" xlink:href="#me48aeba5e8" y="197.805487"/>
     <use style="stroke:#000000;" x="231.774221" xlink:href="#me48aeba5e8" y="202.782622"/>
     <use style="stroke:#000000;" x="233.691939" xlink:href="#me48aeba5e8" y="210.367257"/>
     <use style="stroke:#000000;" x="235.609656" xlink:href="#me48aeba5e8" y="203.040013"/>
     <use style="stroke:#000000;" x="237.527374" xlink:href="#me48aeba5e8" y="206.748253"/>
     <use style="stroke:#000000;" x="239.445092" xlink:href="#me48aeba5e8" y="196.980517"/>
     <use style="stroke:#000000;" x="241.362809" xlink:href="#me48aeba5e8" y="199.309718"/>
     <use style="stroke:#000000;" x="243.280527" xlink:href="#me48aeba5e8" y="193.628081"/>
     <use style="stroke:#000000;" x="245.198244" xlink:href="#me48aeba5e8" y="201.174652"/>
     <use style="stroke:#000000;" x="247.115962" xlink:href="#me48aeba5e8" y="200.083765"/>
     <use style="stroke:#000000;" x="249.033679" xlink:href="#me48aeba5e8" y="205.348129"/>
     <use style="stroke:#000000;" x="250.951397" xlink:href="#me48aeba5e8" y="207.295025"/>
     <use style="stroke:#000000;" x="252.869115" xlink:href="#me48aeba5e8" y="199.725858"/>
     <use style="stroke:#000000;" x="254.786832" xlink:href="#me48aeba5e8" y="208.193608"/>
     <use style="stroke:#000000;" x="256.70455" xlink:href="#me48aeba5e8" y="199.507637"/>
     <use style="stroke:#000000;" x="258.622267" xlink:href="#me48aeba5e8" y="203.661144"/>
     <use style="stroke:#000000;" x="260.539985" xlink:href="#me48aeba5e8" y="214.548876"/>
     <use style="stroke:#000000;" x="262.457702" xlink:href="#me48aeba5e8" y="204.856382"/>
     <use style="stroke:#000000;" x="264.37542" xlink:href="#me48aeba5e8" y="205.701553"/>
     <use style="stroke:#000000;" x="266.293138" xlink:href="#me48aeba5e8" y="198.029677"/>
    </g>
   </g>
   <g id="line2d_18">
    <path clip-path="url(#pa74fd48dec)" d="M 78.356816 207.997829 
L 266.293138 207.997829 
" style="fill:none;stroke:#ff0000;stroke-linecap:square;stroke-width:1.5;"/>
   </g>
   <g id="patch_8">
    <path d="M 68.96 246.04 
L 68.96 187.23 
" style="fill:none;stroke:#000000;stroke-linecap:square;stroke-linejoin:miter;stroke-width:0.8;"/>
   </g>
   <g id="patch_9">
    <path d="M 275.689954 246.04 
L 275.689954 187.23 
" style="fill:none;stroke:#000000;stroke-linecap:square;stroke-linejoin:miter;stroke-width:0.8;"/>
   </g>
   <g id="patch_10">
    <path d="M 68.96 246.04 
L 275.689954 246.04 
" style="fill:none;stroke:#000000;stroke-linecap:square;stroke-linejoin:miter;stroke-width:0.8;"/>
   </g>
   <g id="patch_11">
    <path d="M 68.96 187.23 
L 275.689954 187.23 
" style="fill:none;stroke:#000000;stroke-linecap:square;stroke-linejoin:miter;stroke-width:0.8;"/>
   </g>
  </g>
 </g>
 <defs>
  <clipPath id="p5c71e500a3">
   <rect height="176.43" width="206.729954" x="68.96" y="10.8"/>
  </clipPath>
  <clipPath id="pa74fd48dec">
   <rect height="58.81" width="206.729954" x="68.96" y="187.23"/>
  </clipPath>
 </defs>
</svg>
